<?xml version="1.0" encoding="utf-8"?>
<!-- Generator: Adobe Illustrator 19.0.0, SVG Export Plug-In . SVG Version: 6.00 Build 0)  -->
<svg version="1.1" xmlns="http://www.w3.org/2000/svg" xmlns:xlink="http://www.w3.org/1999/xlink" x="0px" y="0px"
	 viewBox="-49 141 512 512" style="enable-background:new -49 141 512 512;" xml:space="preserve">
<style type="text/css">
	.st0{display:none;}
	.st1{display:inline;fill:#4C4B4B;}
	.st2{fill:#FFFFFF;}
	.st3{fill:#000038;}
</style>
<g id="Capa_2" class="st0">
	<rect x="-49" y="141" class="st1" width="512" height="512"/>
</g>
<g id="Capa_3" class="st0">
</g>
<g id="Capa_1">
	<path class="st2" d="M206.9,152.6C98.9,152.6,11,240.5,11,348.5c0,12.3,1.1,24.7,3.5,36.8c0.1,0.7,0.5,2.9,1.3,6.6
		c3,13.2,7.4,26.2,13.1,38.6c21.1,49.7,67.5,126,169.4,207.8c2.6,2,5.6,3.1,8.7,3.1c3.1,0,6.1-1,8.7-3.1
		C317.4,556.5,364,480.2,385.1,430.5c5.7-12.4,10.1-25.3,13.1-38.6c0.8-3.7,1.2-5.8,1.3-6.6c2.3-12.1,3.5-24.5,3.5-36.8
		C402.8,240.5,314.9,152.6,206.9,152.6z"/>
	<path class="st2" d="M371,385.6"/>
	<path class="st3" d="M206.9,218.6c-55.2,0-100.1,44.9-100.1,100.1s44.9,100.1,100.1,100.1S307,373.9,307,318.7
		S262.1,218.6,206.9,218.6z"/>
</g>
</svg>
