<?xml version="1.0" encoding="utf-8"?>
<!-- Generator: Adobe Illustrator 16.0.0, SVG Export Plug-In . SVG Version: 6.00 Build 0)  -->
<!DOCTYPE svg PUBLIC "-//W3C//DTD SVG 1.1//EN" "http://www.w3.org/Graphics/SVG/1.1/DTD/svg11.dtd">
<svg version="1.1" xmlns="http://www.w3.org/2000/svg" xmlns:xlink="http://www.w3.org/1999/xlink" x="0px" y="0px" width="160px"
	 height="159.04px" viewBox="0 0 160 159.04" enable-background="new 0 0 160 159.04" xml:space="preserve">
<g id="Layer_5" display="none">
</g>
<g id="Layer_1">
</g>
<g id="Layer_6">
</g>
<g id="Layer_2">
</g>
<g id="Layer_3">
	<g>
		<g>
			<g>
				<path fill="#FFFFFF" d="M97.059,139.132c-32.147,0-58.301-26.154-58.301-58.303c0-32.147,26.153-58.301,58.301-58.301
					s58.301,26.153,58.301,58.301C155.359,112.978,129.206,139.132,97.059,139.132z M97.059,26.091
					c-30.183,0-54.738,24.556-54.738,54.738c0,30.184,24.556,54.74,54.738,54.74s54.738-24.557,54.738-54.74
					C151.797,50.646,127.241,26.091,97.059,26.091z"/>
			</g>
		</g>
		<g>
			<g>
				<g>
					<g>
						<path fill="#FFFFFF" d="M97.361,66.921c-10.101,0-16.743,6.084-16.743,13.111c0,5.682,0.661,9.105,10.463,14.01
							c1.277,0.633,0.184,7.998,0.184,7.998H95v-21h3v21h4.731c0,0-0.836-7.289,0.909-7.998c6.463-2.641,10.283-8.383,10.283-13.969
							C113.924,73.042,107.465,66.921,97.361,66.921z M91.266,89.714c-1.359,0-2.457-0.91-2.457-2.035
							c0-1.123,1.098-2.029,2.457-2.029c1.357,0,2.457,0.906,2.457,2.029C93.723,88.804,92.623,89.714,91.266,89.714z
							 M101.621,89.794c-1.356,0-2.456-0.91-2.456-2.029c0-1.127,1.1-2.035,2.456-2.035c1.359,0,2.458,0.908,2.458,2.035
							C104.079,88.884,102.98,89.794,101.621,89.794z"/>
					</g>
				</g>
			</g>
		</g>
		<g>
			<g>
				<g>
					<path fill="#FFFFFF" d="M68.711,77.04c0,0.488-0.396,1-0.892,1H55.354c-0.494,0-0.892-0.512-0.892-1l0,0
						c0-0.494,0.397-1,0.892-1h12.466C68.315,76.04,68.711,76.546,68.711,77.04L68.711,77.04z"/>
					<path fill="#FFFFFF" d="M67.819,79.04H55.354c-1.025,0-1.892-0.916-1.892-2s0.866-2,1.892-2h12.466
						c1.025,0,1.892,0.916,1.892,2S68.845,79.04,67.819,79.04z M55.468,77.04h12.238H55.468z"/>
				</g>
			</g>
			<g>
				<g>
					<path fill="#FFFFFF" d="M98.115,56.622c-0.738-0.025-1.324-0.57-1.303-1.223l0.304-9.447c0.022-0.648,0.643-1.154,1.388-1.135
						l0,0c0.74,0.025,1.324,0.57,1.307,1.227l-0.308,9.443C99.481,56.138,98.864,56.646,98.115,56.622L98.115,56.622z"/>
					<path fill="#FFFFFF" d="M98.165,57.623l-0.081-0.002c-1.293-0.044-2.311-1.056-2.271-2.255l0.304-9.446
						c0.04-1.181,1.07-2.104,2.345-2.104c1.361,0.046,2.38,1.057,2.349,2.254l-0.309,9.449
						C100.464,56.699,99.437,57.623,98.165,57.623z M98.47,45.816c-0.229,0-0.353,0.121-0.354,0.17l-0.304,9.445
						c-0.001,0.056,0.042,0.184,0.255,0.191l-0.066,1v-1c0,0,0.42-0.12,0.422-0.169l0.349-9.442
						C98.771,45.951,98.685,45.824,98.47,45.816z"/>
				</g>
			</g>
			<g>
				<g>
					<path fill="#FFFFFF" d="M141,76.798c0,0.689,0.405,1.242-0.087,1.242h-12.442c-0.493,0-2.471-0.553-2.471-1.242v-0.086
						c0-0.691,1.978-0.672,2.471-0.672h12.442c0.492,0,0.087-0.02,0.087,0.672V76.798z"/>
					<path fill="#FFFFFF" d="M140.913,79.04h-12.442c-0.354,0-3.471-0.488-3.471-2.242c0-1.758,2.455-1.758,3.379-1.758h12.534
						c0.29-0.017,0.787-0.001,1.093,0.496l0.293,0.477L142,76.712c0,0.223,0.037,0.383,0.072,0.537
						c0.08,0.349,0.2,0.876-0.173,1.344C141.767,78.76,141.461,79.04,140.913,79.04z M128.477,77.04h0.003h11.53H128.477z"/>
				</g>
			</g>
			<g>
				<g>
					<path fill="#FFFFFF" d="M77.07,61.759c-0.524,0.527-1.299,0.611-1.73,0.178l-6.257-6.213c-0.431-0.432-0.353-1.207,0.169-1.734
						l0,0c0.523-0.525,1.299-0.605,1.733-0.18l6.253,6.219C77.673,60.456,77.598,61.231,77.07,61.759L77.07,61.759z"/>
					<path fill="#FFFFFF" d="M76.044,63.215c-0.544,0-1.045-0.203-1.413-0.573l-6.253-6.208c-0.817-0.82-0.743-2.23,0.163-3.147
						c0.883-0.885,2.347-0.974,3.145-0.19l6.258,6.224c0.369,0.363,0.575,0.865,0.577,1.41c0.003,0.629-0.269,1.262-0.743,1.736
						C77.305,62.941,76.672,63.215,76.044,63.215z M70.28,54.519c-0.075,0.018-0.203,0.06-0.32,0.177
						c-0.149,0.151-0.188,0.31-0.175,0.346L76,61.227v-0.012c0,0,0.221-0.042,0.34-0.161c0.15-0.151,0.179-0.304,0.168-0.34
						L70.28,54.519z"/>
				</g>
			</g>
			<g>
				<g>
					<path fill="#FFFFFF" d="M118.657,61.759c0.522,0.527,1.3,0.611,1.731,0.178l6.255-6.213c0.429-0.432,0.356-1.207-0.168-1.734
						l0,0c-0.524-0.525-1.299-0.605-1.731-0.18l-6.258,6.219C118.057,60.456,118.133,61.231,118.657,61.759L118.657,61.759z"/>
					<path fill="#FFFFFF" d="M119.684,63.215L119.684,63.215c-0.63,0-1.264-0.274-1.736-0.752c-0.911-0.916-0.986-2.327-0.166-3.144
						l6.258-6.219c0.804-0.792,2.264-0.699,3.145,0.183c0.909,0.914,0.984,2.324,0.17,3.146l-6.26,6.218
						C120.729,63.012,120.228,63.215,119.684,63.215z M125.448,54.536l-6.257,6.201c0.008,0.009,0.024,0.165,0.175,0.316
						c0.145,0.146,0.341,0.157,0.341,0.157l6.231-6.197c-0.007-0.01-0.02-0.166-0.172-0.319
						C125.65,54.578,125.522,54.536,125.448,54.536z"/>
				</g>
			</g>
		</g>
		<g>
			<path fill="#FFFFFF" d="M103.252,105.624c0,0.598-0.484,1.083-1.083,1.083H92.166c-0.598,0-1.083-0.485-1.083-1.083l0,0
				c0-0.598,0.485-1.083,1.083-1.083h10.003C102.768,104.541,103.252,105.026,103.252,105.624L103.252,105.624z"/>
		</g>
		<g>
			<path fill="#FFFFFF" d="M103.708,109.624c0,0.598-0.521,1.083-1.164,1.083H91.792c-0.643,0-1.165-0.485-1.165-1.083l0,0
				c0-0.598,0.522-1.083,1.165-1.083h10.752C103.188,108.541,103.708,109.026,103.708,109.624L103.708,109.624z"/>
		</g>
	</g>
</g>
<g id="Layer_7" display="none">
</g>
<g id="Retícula" display="none">
	<g display="inline">
		<g>
			<rect x="-76.273" y="-4968.179" opacity="0.3" fill="#42A5F5" width="81.7" height="9161.738"/>
			<rect x="19.635" y="-4968.179" opacity="0.3" fill="#42A5F5" width="81.701" height="9161.738"/>
			<rect x="115.543" y="-4968.179" opacity="0.3" fill="#42A5F5" width="81.697" height="9161.738"/>
		</g>
	</g>
</g>
</svg>
