<?xml version="1.0" encoding="utf-8"?>
<!-- Generator: Adobe Illustrator 16.0.0, SVG Export Plug-In . SVG Version: 6.00 Build 0)  -->
<!DOCTYPE svg PUBLIC "-//W3C//DTD SVG 1.1//EN" "http://www.w3.org/Graphics/SVG/1.1/DTD/svg11.dtd">
<svg version="1.1" xmlns="http://www.w3.org/2000/svg" xmlns:xlink="http://www.w3.org/1999/xlink" x="0px" y="0px" width="160px"
	 height="159.04px" viewBox="0 0 160 159.04" enable-background="new 0 0 160 159.04" xml:space="preserve">
<g id="Layer_5" display="none">
</g>
<g id="Layer_1">
</g>
<g id="Layer_6">
</g>
<g id="Layer_2">
</g>
<g id="Layer_3">
	<g>
		<g>
			<path fill="#FFFFFF" d="M83.987,143.703c-32.393,0-58.745-26.354-58.745-58.749c0-32.394,26.353-58.747,58.745-58.747
				c32.394,0,58.747,26.354,58.747,58.747C142.734,117.349,116.381,143.703,83.987,143.703z M83.987,29.689
				c-30.472,0-55.263,24.792-55.263,55.265c0,30.474,24.791,55.267,55.263,55.267c30.473,0,55.265-24.793,55.265-55.267
				C139.252,54.481,114.46,29.689,83.987,29.689z"/>
		</g>
		<g>
			<g>
				<g>
					<path fill="#FFFFFF" d="M82,73.931v11.965c0,0-6.686-7.615-23.549,0.271l2.8-13.596C61.251,72.571,73,65.228,82,73.931z"/>
				</g>
				<g>
					<path fill="#FFFFFF" d="M84.329,73.626l-0.122,11.965c0,0,6.604-7.545,23.38,0.512l-2.58-13.619
						C105.007,72.483,93.121,65.013,84.329,73.626z"/>
				</g>
			</g>
			<g>
				<path fill="#FFFFFF" d="M119,101.04H48v-43h71V101.04z M52,97.04h63v-35H52V97.04z"/>
			</g>
			<g>
				<path fill="#FFFFFF" d="M43,105.04v6h81v-6H43z M110.481,110.282c-1.1,0-1.996-0.891-1.996-1.986c0-1.098,0.896-1.99,1.996-1.99
					c1.103,0,1.994,0.893,1.994,1.99C112.476,109.392,111.584,110.282,110.481,110.282z"/>
			</g>
		</g>
	</g>
</g>
<g id="Layer_7" display="none">
</g>
<g id="Retícula" display="none">
	<g display="inline">
		<g>
			<rect x="4.006" y="-4436.179" opacity="0.3" fill="#42A5F5" width="81.697" height="9161.738"/>
			<rect x="99.914" y="-4436.179" opacity="0.3" fill="#42A5F5" width="81.699" height="9161.738"/>
		</g>
	</g>
</g>
</svg>
