<?xml version="1.0" encoding="utf-8"?>
<!-- Generator: Adobe Illustrator 16.0.0, SVG Export Plug-In . SVG Version: 6.00 Build 0)  -->
<!DOCTYPE svg PUBLIC "-//W3C//DTD SVG 1.1//EN" "http://www.w3.org/Graphics/SVG/1.1/DTD/svg11.dtd">
<svg version="1.1" xmlns="http://www.w3.org/2000/svg" xmlns:xlink="http://www.w3.org/1999/xlink" x="0px" y="0px"
	 width="144.015px" height="147.687px" viewBox="0 0 144.015 147.687" enable-background="new 0 0 144.015 147.687"
	 xml:space="preserve">
<g id="Layer_5" display="none">
</g>
<g id="Layer_1">
</g>
<g id="Layer_6">
</g>
<g id="Layer_2">
</g>
<g id="Layer_3">
	<g>
		<g>
			<g>
				<path fill="#FFFFFF" d="M71.8,131.833c-32.147,0-58.301-26.154-58.301-58.303c0-32.147,26.153-58.301,58.301-58.301
					s58.301,26.153,58.301,58.301C130.101,105.679,103.947,131.833,71.8,131.833z M71.8,18.792
					c-30.183,0-54.738,24.556-54.738,54.738c0,30.184,24.556,54.74,54.738,54.74s54.738-24.557,54.738-54.74
					C126.538,43.348,101.982,18.792,71.8,18.792z"/>
			</g>
		</g>
		<g>
			<g>
				<g>
					<g>
						<path fill="#FFFFFF" d="M72.103,59.622c-10.101,0-16.743,6.084-16.743,13.111c0,5.682,0.661,9.105,10.463,14.01
							c1.277,0.633,0.184,7.998,0.184,7.998h3.735v-21h3v21h4.731c0,0-0.836-7.289,0.909-7.998
							c6.463-2.641,10.283-8.383,10.283-13.969C88.665,65.743,82.206,59.622,72.103,59.622z M66.007,82.415
							c-1.359,0-2.457-0.91-2.457-2.035c0-1.123,1.098-2.029,2.457-2.029c1.357,0,2.457,0.906,2.457,2.029
							C68.464,81.505,67.364,82.415,66.007,82.415z M76.362,82.495c-1.356,0-2.456-0.91-2.456-2.029c0-1.127,1.1-2.035,2.456-2.035
							c1.359,0,2.458,0.908,2.458,2.035C78.82,81.585,77.722,82.495,76.362,82.495z"/>
					</g>
				</g>
			</g>
		</g>
		<g>
			<g>
				<g>
					<path fill="#FFFFFF" d="M43.452,69.741c0,0.488-0.396,1-0.892,1H30.095c-0.494,0-0.892-0.512-0.892-1l0,0
						c0-0.494,0.397-1,0.892-1h12.466C43.057,68.741,43.452,69.247,43.452,69.741L43.452,69.741z"/>
					<path fill="#FFFFFF" d="M42.561,71.741H30.095c-1.025,0-1.892-0.916-1.892-2s0.866-2,1.892-2h12.466
						c1.025,0,1.892,0.916,1.892,2S43.586,71.741,42.561,71.741z M30.209,69.741h12.238H30.209z"/>
				</g>
			</g>
			<g>
				<g>
					<path fill="#FFFFFF" d="M72.856,49.323c-0.738-0.025-1.324-0.57-1.303-1.223l0.304-9.447c0.022-0.648,0.643-1.154,1.388-1.135
						l0,0c0.74,0.025,1.324,0.57,1.307,1.227l-0.308,9.443C74.223,48.839,73.605,49.347,72.856,49.323L72.856,49.323z"/>
					<path fill="#FFFFFF" d="M72.906,50.324l-0.081-0.002c-1.293-0.044-2.311-1.056-2.271-2.255l0.304-9.446
						c0.04-1.181,1.07-2.104,2.345-2.104c1.361,0.046,2.38,1.057,2.349,2.254l-0.309,9.449C75.205,49.4,74.178,50.324,72.906,50.324
						z M73.211,38.518c-0.229,0-0.353,0.121-0.354,0.17l-0.304,9.445c-0.001,0.056,0.042,0.184,0.255,0.191l-0.066,1v-1
						c0,0,0.42-0.12,0.422-0.169l0.349-9.442C73.513,38.652,73.426,38.525,73.211,38.518z"/>
				</g>
			</g>
			<g>
				<g>
					<path fill="#FFFFFF" d="M115.741,69.499c0,0.689,0.405,1.242-0.087,1.242h-12.442c-0.493,0-2.471-0.553-2.471-1.242v-0.086
						c0-0.691,1.978-0.672,2.471-0.672h12.442c0.492,0,0.087-0.02,0.087,0.672V69.499z"/>
					<path fill="#FFFFFF" d="M115.654,71.741h-12.442c-0.354,0-3.471-0.488-3.471-2.242c0-1.758,2.455-1.758,3.379-1.758h12.534
						c0.29-0.017,0.787-0.001,1.093,0.496l0.293,0.477l-0.299,0.699c0,0.223,0.037,0.383,0.072,0.537
						c0.08,0.349,0.2,0.876-0.173,1.344C116.508,71.461,116.202,71.741,115.654,71.741z M103.218,69.741h0.003h11.53H103.218z"/>
				</g>
			</g>
			<g>
				<g>
					<path fill="#FFFFFF" d="M51.812,54.46c-0.524,0.527-1.299,0.611-1.73,0.178l-6.257-6.213c-0.431-0.432-0.353-1.207,0.169-1.734
						l0,0c0.523-0.525,1.299-0.605,1.733-0.18l6.253,6.219C52.414,53.157,52.339,53.933,51.812,54.46L51.812,54.46z"/>
					<path fill="#FFFFFF" d="M50.785,55.916c-0.544,0-1.045-0.203-1.413-0.573l-6.253-6.208c-0.817-0.82-0.743-2.23,0.163-3.147
						c0.883-0.885,2.347-0.974,3.145-0.19l6.258,6.224c0.369,0.363,0.575,0.865,0.577,1.41c0.003,0.629-0.269,1.262-0.743,1.736
						C52.046,55.643,51.413,55.916,50.785,55.916z M45.021,47.22c-0.075,0.018-0.203,0.06-0.32,0.177
						c-0.149,0.151-0.188,0.31-0.175,0.346l6.215,6.186v-0.012c0,0,0.221-0.042,0.34-0.161c0.15-0.151,0.179-0.304,0.168-0.34
						L45.021,47.22z"/>
				</g>
			</g>
			<g>
				<g>
					<path fill="#FFFFFF" d="M93.398,54.46c0.522,0.527,1.3,0.611,1.731,0.178l6.255-6.213c0.429-0.432,0.356-1.207-0.168-1.734l0,0
						c-0.524-0.525-1.299-0.605-1.731-0.18l-6.258,6.219C92.798,53.157,92.874,53.933,93.398,54.46L93.398,54.46z"/>
					<path fill="#FFFFFF" d="M94.425,55.916L94.425,55.916c-0.63,0-1.264-0.274-1.736-0.752c-0.911-0.916-0.986-2.327-0.166-3.144
						l6.258-6.219c0.804-0.792,2.264-0.699,3.145,0.183c0.909,0.914,0.984,2.324,0.17,3.146l-6.26,6.218
						C95.471,55.713,94.969,55.916,94.425,55.916z M100.189,47.237l-6.257,6.201c0.008,0.009,0.024,0.165,0.175,0.316
						c0.145,0.146,0.341,0.157,0.341,0.157l6.231-6.197c-0.007-0.01-0.02-0.166-0.172-0.319
						C100.392,47.279,100.264,47.237,100.189,47.237z"/>
				</g>
			</g>
		</g>
		<g>
			<path fill="#FFFFFF" d="M77.993,98.325c0,0.598-0.484,1.083-1.083,1.083H66.907c-0.598,0-1.083-0.485-1.083-1.083l0,0
				c0-0.598,0.485-1.083,1.083-1.083H76.91C77.509,97.242,77.993,97.728,77.993,98.325L77.993,98.325z"/>
		</g>
		<g>
			<path fill="#FFFFFF" d="M78.449,102.325c0,0.598-0.521,1.083-1.164,1.083H66.533c-0.643,0-1.165-0.485-1.165-1.083l0,0
				c0-0.598,0.522-1.083,1.165-1.083h10.752C77.929,101.242,78.449,101.728,78.449,102.325L78.449,102.325z"/>
		</g>
	</g>
</g>
<g id="Retícula" display="none">
	<g display="inline">
		<g>
			<rect x="66.981" y="-5306.478" opacity="0.3" fill="#42A5F5" width="81.698" height="9161.738"/>
		</g>
	</g>
</g>
</svg>
