<?xml version="1.0" encoding="utf-8"?>
<!-- Generator: Adobe Illustrator 16.0.0, SVG Export Plug-In . SVG Version: 6.00 Build 0)  -->
<!DOCTYPE svg PUBLIC "-//W3C//DTD SVG 1.1//EN" "http://www.w3.org/Graphics/SVG/1.1/DTD/svg11.dtd">
<svg version="1.1" xmlns="http://www.w3.org/2000/svg" xmlns:xlink="http://www.w3.org/1999/xlink" x="0px" y="0px" width="160px"
	 height="159.04px" viewBox="0 0 160 159.04" enable-background="new 0 0 160 159.04" xml:space="preserve">
<g id="Layer_5" display="none">
</g>
<g id="Layer_1">
</g>
<g id="Layer_6">
</g>
<g id="Layer_2">
</g>
<g id="Layer_3">
	<g>
		<g>
			<g>
				<path fill="#FFFFFF" d="M83.398,144.176c-32.928,0-59.716-26.789-59.716-59.718c0-32.928,26.788-59.716,59.716-59.716
					c32.927,0,59.714,26.788,59.714,59.716C143.112,117.387,116.325,144.176,83.398,144.176z M83.398,28.447
					c-30.885,0-56.011,25.126-56.011,56.011c0,30.886,25.126,56.013,56.011,56.013c30.883,0,56.009-25.127,56.009-56.013
					C139.407,53.573,114.281,28.447,83.398,28.447z"/>
			</g>
		</g>
		<g>
			<g>
				<path fill="#FFFFFF" d="M108,54.04H54v-11h54V54.04z M55,52.603V44.04h52H55V52.603z M56,51.04h50v-6H56V51.04z"/>
			</g>
		</g>
		<g>
			<g>
				<path fill="#FFFFFF" d="M108,125.04H54v-11h54V125.04z M55,124.04v-9h52H55V124.04z M56,123.04h50v-7H56V123.04z"/>
			</g>
		</g>
		<g>
			<g>
				<path fill="#FFFFFF" d="M64.107,51.04c0,0,0.018,3.211,0.666,6.883c0.736,4.109,2.98,9.551,5.431,12.838
					c4.319,5.775,8.688,9.498,19.044,14.68c0.503,0.25,6.633-10.984,8.854-19.666c1.752-6.848,1.752-11.734,2.086-14.734H64.107z"/>
			</g>
		</g>
		<g>
			<g>
				<path fill="#FFFFFF" d="M100.188,114.909c0,0,0.447-4.664-1.334-9.525c-1.643-4.465-5.867-9.453-8.187-11.693
					c-3.768-3.637-5.711-4.248-10.524-7.598c-1.815-1.266-4.508-2.756-7.266-5.428c-0.595-0.584-5.564,9.939-7.552,18.543
					c-1.272,5.51-1.22,15.711-1.22,15.711L100.188,114.909z"/>
			</g>
		</g>
	</g>
</g>
<g id="Layer_7" display="none">
</g>
<g id="Retícula" display="none">
	<g display="inline">
		<g>
			<rect x="5.055" y="-4436.179" opacity="0.3" fill="#42A5F5" width="81.699" height="9161.738"/>
			<rect x="100.962" y="-4436.179" opacity="0.3" fill="#42A5F5" width="81.698" height="9161.738"/>
		</g>
	</g>
</g>
</svg>
