<?xml version="1.0" encoding="utf-8"?>
<!-- Generator: Adobe Illustrator 16.0.0, SVG Export Plug-In . SVG Version: 6.00 Build 0)  -->
<!DOCTYPE svg PUBLIC "-//W3C//DTD SVG 1.1//EN" "http://www.w3.org/Graphics/SVG/1.1/DTD/svg11.dtd">
<svg version="1.1" xmlns="http://www.w3.org/2000/svg" xmlns:xlink="http://www.w3.org/1999/xlink" x="0px" y="0px" width="160px"
	 height="159.04px" viewBox="0 0 160 159.04" enable-background="new 0 0 160 159.04" xml:space="preserve">
<g id="Layer_5" display="none">
</g>
<g id="Layer_1">
</g>
<g id="Layer_6">
</g>
<g id="Layer_2">
</g>
<g id="Layer_3">
	<g>
		<g>
			<path fill="#FFFFFF" d="M81.383,141.027c-32.039,0-58.104-26.064-58.104-58.103s26.065-58.103,58.104-58.103
				c32.038,0,58.103,26.064,58.103,58.103S113.421,141.027,81.383,141.027z M81.383,28.336c-30.102,0-54.591,24.488-54.591,54.589
				s24.489,54.589,54.591,54.589c30.101,0,54.589-24.488,54.589-54.589S111.483,28.336,81.383,28.336z"/>
		</g>
		<g>
			<g>
				<path fill="#FFFFFF" d="M81.505,128.566c-12.203,0-22.131-9.929-22.131-22.134c0-12.203,9.928-22.13,22.131-22.13
					c12.204,0,22.133,9.927,22.133,22.13C103.638,118.638,93.709,128.566,81.505,128.566z M81.505,87.816
					c-10.266,0-18.617,8.352-18.617,18.616c0,10.267,8.352,18.62,18.617,18.62c10.267,0,18.619-8.354,18.619-18.62
					C100.124,96.168,91.771,87.816,81.505,87.816z"/>
			</g>
			<g>
				<path fill="#FFFFFF" d="M69.189,90.386c-1.343,1.078-5.361,5.76-5.361,6.158c0,0.4,0.566,1.801,3.86,1.035
					c2.054-0.479,2.032,1.631,2.831,1.5c1.12-0.191,2.607,3.619,2.607,3.619s0.313,1.123,1.72,2.537
					c1.8,1.801,3.733,3.129,3.733,3.129s-1.602-1.961-2.334-3.824c-0.189-0.482-0.666-2.33-0.666-2.33s0.766,0.705,3.129,2.766
					c1.952,1.695,1.738,3.26,2.668,4.121c0.661,0.617,1.062,0.268,3.459,1.068c2.398,0.799,4.661-1.199,4.661-1.199l-0.065,1.799
					c0,0-0.336,2.729-1.666,3.131c-1.332,0.398-3.061,2.26-4.457,2.324c-1.191,0.057-2.734,0.203-3,2.066
					c-0.267,1.863-1.334,2.93-1.064,4.129c0.267,1.199-0.932,1.93-0.932,1.93s-0.468,1.727,0.668,1.863
					c0.477,0.059,4.424,0.553,5.057,0.465c0.992-0.131,2.941-0.668,3.864-1.064c1.217-0.52,3.569-1.771,4.661-2.527
					c1.184-0.824,3.686-2.443,4.46-3.662c0.309-0.486,0.979-1.621,0.668-2.5c-0.386-1.078-1.84-2.061-3.262-3.023
					c-1.866-1.268-1.838-1.367-2.465-2.535c-0.404-0.74-0.334-3.061,0.333-3.598c0.665-0.529,0.531-1.125,1.063-2.064
					c0.534-0.932,0.399-0.662-0.398-1.865c-0.801-1.197,0-2.062-1.198-2.062c-1.2,0-2.535,0.666-2.535,0.666s0.269,0.533,0,1.734
					c-0.267,1.195-1.597,1.729-2.525,1.064c-0.932-0.662-1.867-2-1.867-3.465s0.665-3.064,1.867-3.33
					c1.198-0.266,0.664-0.664,1.996-1.598c1.333-0.934,1.601,0.531,2.799-1.463c1.199-2,2.992-1.803,3.524-3
					c0.534-1.197-3.471-3.475-4.99-4.457c-1.32-0.85-5.589-1.402-7.193-1.801c-1.104-0.264-4.032,0.219-5.196,0.334
					c-1.176,0.123-3.444,1.08-4.725,1.531C72.143,88.263,69.972,89.755,69.189,90.386z"/>
			</g>
		</g>
		<g>
			<g>
				<path fill="#FFFFFF" d="M66.595,82.736l-4.408-2.893c2.564-3.906,8.416-6.421,16.055-6.899
					c6.904-0.434,16.52,0.895,20.917,6.054l-4.012,3.42c-2.462-2.888-9.431-4.653-16.576-4.212
					C72.779,78.568,68.19,80.305,66.595,82.736z"/>
			</g>
			<g>
				<path fill="#FFFFFF" d="M58.677,73.668l-4.408-2.893c3.644-5.551,12.118-9.135,23.251-9.834
					c10.933-0.686,24.624,1.731,30.554,8.683l-4.01,3.422c-4.049-4.744-14.82-7.556-26.214-6.843
					C68.667,66.779,61.32,69.641,58.677,73.668z"/>
			</g>
			<g>
				<path fill="#FFFFFF" d="M48.329,65.177l-4.65-2.484c3.746-7.011,13.612-10.262,21.23-11.755
					c16.687-3.27,40.378-1.312,51.138,7.624l-3.367,4.055c-8.417-6.989-29.394-9.908-46.757-6.505
					C56.872,57.885,50.459,61.189,48.329,65.177z"/>
			</g>
		</g>
	</g>
</g>
<g id="Layer_7" display="none">
</g>
<g id="Retícula" display="none">
	<g display="inline">
		<g>
			<rect x="5.055" y="-4968.179" opacity="0.3" fill="#42A5F5" width="81.699" height="9161.738"/>
			<rect x="100.962" y="-4968.179" opacity="0.3" fill="#42A5F5" width="81.698" height="9161.738"/>
		</g>
	</g>
</g>
</svg>
