<?xml version="1.0" encoding="utf-8"?>
<!-- Generator: Adobe Illustrator 16.0.0, SVG Export Plug-In . SVG Version: 6.00 Build 0)  -->
<!DOCTYPE svg PUBLIC "-//W3C//DTD SVG 1.1//EN" "http://www.w3.org/Graphics/SVG/1.1/DTD/svg11.dtd">
<svg version="1.1" xmlns="http://www.w3.org/2000/svg" xmlns:xlink="http://www.w3.org/1999/xlink" x="0px" y="0px" width="160px"
	 height="159.04px" viewBox="0 0 160 159.04" enable-background="new 0 0 160 159.04" xml:space="preserve">
<g id="Layer_5" display="none">
</g>
<g id="Layer_1">
</g>
<g id="Layer_6">
</g>
<g id="Layer_2">
</g>
<g id="Layer_3">
	<g>
		<g>
			<g>
				<path fill="#FFFFFF" d="M86.407,145.993c-33.173,0-60.161-26.986-60.161-60.156c0-33.173,26.988-60.16,60.161-60.16
					c33.169,0,60.154,26.987,60.154,60.16C146.562,119.007,119.576,145.993,86.407,145.993z M86.407,29.306
					c-31.172,0-56.532,25.359-56.532,56.531c0,31.169,25.36,56.527,56.532,56.527c31.168,0,56.525-25.358,56.525-56.527
					C142.933,54.665,117.575,29.306,86.407,29.306z"/>
			</g>
		</g>
		<g>
			<g>
				<path fill="#FFFFFF" d="M86.915,67c-7.187,0-13.033-5.846-13.033-13.03c0-7.189,5.847-13.038,13.033-13.038
					c7.186,0,13.032,5.849,13.032,13.038C99.947,61.154,94.101,67,86.915,67z M86.915,42.746c-6.187,0-11.219,5.035-11.219,11.224
					c0,6.185,5.032,11.216,11.219,11.216c6.186,0,11.218-5.031,11.218-11.216C98.133,47.781,93.101,42.746,86.915,42.746z"/>
				<path fill="#FFFFFF" d="M86.915,67.5c-7.462,0-13.533-6.069-13.533-13.53c0-7.465,6.071-13.538,13.533-13.538
					s13.532,6.073,13.532,13.538C100.447,61.431,94.377,67.5,86.915,67.5z M86.915,41.432c-6.911,0-12.533,5.625-12.533,12.538
					c0,6.909,5.622,12.53,12.533,12.53c6.91,0,12.532-5.621,12.532-12.53C99.447,47.057,93.825,41.432,86.915,41.432z
					 M86.915,65.686c-6.462,0-11.719-5.256-11.719-11.716c0-6.465,5.257-11.724,11.719-11.724c6.461,0,11.718,5.259,11.718,11.724
					C98.633,60.43,93.376,65.686,86.915,65.686z M86.915,43.246c-5.91,0-10.719,4.811-10.719,10.724
					c0,5.909,4.809,10.716,10.719,10.716s10.718-4.807,10.718-10.716C97.633,48.057,92.825,43.246,86.915,43.246z"/>
			</g>
		</g>
		<g>
			<g>
				<path fill="#FFFFFF" d="M57.605,114.494c-7.188,0-13.034-5.846-13.034-13.03c0-7.189,5.847-13.038,13.034-13.038
					c7.186,0,13.032,5.849,13.032,13.038C70.638,108.648,64.791,114.494,57.605,114.494z M57.605,90.24
					c-6.187,0-11.22,5.035-11.22,11.224c0,6.185,5.033,11.216,11.22,11.216c6.186,0,11.218-5.031,11.218-11.216
					C68.823,95.275,63.791,90.24,57.605,90.24z"/>
				<path fill="#FFFFFF" d="M57.605,114.994c-7.463,0-13.534-6.069-13.534-13.53c0-7.465,6.071-13.538,13.534-13.538
					c7.462,0,13.532,6.073,13.532,13.538C71.138,108.925,65.067,114.994,57.605,114.994z M57.605,88.926
					c-6.911,0-12.534,5.625-12.534,12.538c0,6.909,5.623,12.53,12.534,12.53c6.91,0,12.532-5.621,12.532-12.53
					C70.138,94.551,64.516,88.926,57.605,88.926z M57.605,113.18c-6.462,0-11.72-5.256-11.72-11.716
					c0-6.465,5.258-11.724,11.72-11.724c6.461,0,11.718,5.259,11.718,11.724C69.323,107.924,64.066,113.18,57.605,113.18z
					 M57.605,90.74c-5.911,0-10.72,4.811-10.72,10.724c0,5.909,4.809,10.716,10.72,10.716c5.91,0,10.718-4.807,10.718-10.716
					C68.323,95.551,63.516,90.74,57.605,90.74z"/>
			</g>
		</g>
		<g>
			<g>
				<path fill="#FFFFFF" d="M113.189,114.494c-7.188,0-13.036-5.846-13.036-13.03c0-7.189,5.848-13.038,13.036-13.038
					c7.187,0,13.033,5.849,13.033,13.038C126.223,108.648,120.376,114.494,113.189,114.494z M113.189,90.24
					c-6.188,0-11.222,5.035-11.222,11.224c0,6.185,5.034,11.216,11.222,11.216c6.187,0,11.219-5.031,11.219-11.216
					C124.408,95.275,119.376,90.24,113.189,90.24z"/>
				<path fill="#FFFFFF" d="M113.189,114.994c-7.464,0-13.536-6.069-13.536-13.53c0-7.465,6.072-13.538,13.536-13.538
					c7.462,0,13.533,6.073,13.533,13.538C126.723,108.925,120.651,114.994,113.189,114.994z M113.189,88.926
					c-6.912,0-12.536,5.625-12.536,12.538c0,6.909,5.624,12.53,12.536,12.53c6.911,0,12.533-5.621,12.533-12.53
					C125.723,94.551,120.101,88.926,113.189,88.926z M113.189,113.18c-6.463,0-11.722-5.256-11.722-11.716
					c0-6.465,5.259-11.724,11.722-11.724c6.462,0,11.719,5.259,11.719,11.724C124.908,107.924,119.651,113.18,113.189,113.18z
					 M113.189,90.74c-5.912,0-10.722,4.811-10.722,10.724c0,5.909,4.81,10.716,10.722,10.716c5.91,0,10.719-4.807,10.719-10.716
					C123.908,95.551,119.1,90.74,113.189,90.74z"/>
			</g>
		</g>
		<g>
			<g>
				<path fill="#FFFFFF" d="M63.082,57.29c0,0-9.057,6.316-10.025,18.398c-0.126,1.582,0.064,3.73,0.064,3.73l-4.316,0.088
					l7.391,7.193l4.945-7.682l-3.744,0.209c0,0-0.131-0.418-0.214-2.357c-0.028-0.686-0.026-1.203,0.171-2.523
					c0.252-1.686,1.18-4.256,2.945-7.072c1.054-1.684,3.032-4.215,6.149-6.527c2.702-2.014,4.885-2.652,4.885-2.652l-2.315-3.625
					C69.018,54.47,66.532,54.89,63.082,57.29z"/>
			</g>
		</g>
		<g>
			<g>
				<path fill="#FFFFFF" d="M73.047,122.106c0,0,9.602,5.451,20.925,1.119c1.482-0.57,3.337-1.67,3.337-1.67l1.936,3.863
					l3.312-9.775l-9.066-1.148l1.805,3.293c0,0-0.327,0.289-2.037,1.197c-0.611,0.328-1.074,0.549-2.354,0.941
					c-1.626,0.498-4.343,0.77-7.652,0.387c-1.972-0.223-5.106-0.92-8.538-2.732c-2.979-1.574-4.498-3.262-4.498-3.262l-2.27,3.648
					C67.945,117.968,69.393,120.026,73.047,122.106z"/>
			</g>
		</g>
		<g>
			<g>
				<path fill="#FFFFFF" d="M123.581,79.909c0,0-0.869-11.008-10.813-17.949c-1.303-0.906-3.252-1.828-3.252-1.828l2.109-3.768
					l-9.947,2.742l4.135,8.15l1.712-3.338c0,0,0.426,0.1,2.142,1.008c0.608,0.32,1.052,0.578,2.098,1.418
					c1.321,1.076,3.072,3.172,4.613,6.117c0.919,1.76,2.104,4.744,2.528,8.605c0.369,3.346-0.181,5.555-0.181,5.555l4.299-0.172
					C123.023,86.45,123.91,84.099,123.581,79.909z"/>
			</g>
		</g>
		<g>
			<g>
				<circle fill="#FFFFFF" cx="86.829" cy="54.048" r="4.044"/>
			</g>
		</g>
		<g>
			<g>
				<rect x="53" y="101.04" fill="#FFFFFF" width="8" height="3"/>
			</g>
		</g>
		<g>
			<g>
				<polygon fill="#FFFFFF" points="112.768,96.714 109.061,104.04 116.809,104.04 				"/>
			</g>
		</g>
	</g>
</g>
<g id="Layer_7" display="none">
</g>
<g id="Retícula" display="none">
	<g display="inline">
		<g>
			<rect x="-0.365" y="-4436.179" opacity="0.3" fill="#42A5F5" width="81.701" height="9161.738"/>
			<rect x="95.543" y="-4436.179" opacity="0.3" fill="#42A5F5" width="81.697" height="9161.738"/>
		</g>
	</g>
</g>
</svg>
