<?xml version="1.0" encoding="utf-8"?>
<!-- Generator: Adobe Illustrator 16.0.0, SVG Export Plug-In . SVG Version: 6.00 Build 0)  -->
<!DOCTYPE svg PUBLIC "-//W3C//DTD SVG 1.1//EN" "http://www.w3.org/Graphics/SVG/1.1/DTD/svg11.dtd">
<svg version="1.1" xmlns="http://www.w3.org/2000/svg" xmlns:xlink="http://www.w3.org/1999/xlink" x="0px" y="0px" width="160px"
	 height="159.04px" viewBox="0 0 160 159.04" enable-background="new 0 0 160 159.04" xml:space="preserve">
<g id="Layer_5" display="none">
</g>
<g id="Layer_1">
</g>
<g id="Layer_6">
</g>
<g id="Layer_2">
</g>
<g id="Layer_3">
	<g>
		<g>
			<path fill="#FFFFFF" d="M82.794,142.109c-32.62,0-59.158-26.537-59.158-59.155c0-32.619,26.538-59.157,59.158-59.157
				c32.617,0,59.154,26.538,59.154,59.157C141.948,115.572,115.411,142.109,82.794,142.109z M82.794,27.412
				c-30.627,0-55.543,24.916-55.543,55.542c0,30.625,24.916,55.54,55.543,55.54c30.625,0,55.539-24.915,55.539-55.54
				C138.333,52.328,113.419,27.412,82.794,27.412z"/>
		</g>
		<g>
			<path fill="#FFFFFF" d="M116.908,108.556c0-0.865-0.908-1.607-0.908-1.957V72.835l6.124-3.033L80.719,50.167L39.136,71.495
				l20.796,8.154l0.122,19.902c0,0,21.136,16.514,42.368-0.121l0.832-20.533L115,73.769v32.9c0,0.375-1.945,1.074-1.945,1.887
				c0,0.775-0.011,1.451,0.601,1.836l-1.431,8.244c0,0,0.977,1.488,2.79,1.488c1.824,0,2.431-1.639,2.431-1.639l-1.393-8.332
				C116.482,109.757,116.908,109.192,116.908,108.556z"/>
		</g>
	</g>
</g>
<g id="Layer_7" display="none">
</g>
<g id="Retícula" display="none">
	<g display="inline">
		<g>
			<rect x="4.006" y="-4968.179" opacity="0.3" fill="#42A5F5" width="81.697" height="9161.738"/>
			<rect x="99.914" y="-4968.179" opacity="0.3" fill="#42A5F5" width="81.699" height="9161.738"/>
		</g>
	</g>
</g>
</svg>
