<?xml version="1.0" encoding="utf-8"?>
<!-- Generator: Adobe Illustrator 16.0.0, SVG Export Plug-In . SVG Version: 6.00 Build 0)  -->
<!DOCTYPE svg PUBLIC "-//W3C//DTD SVG 1.1//EN" "http://www.w3.org/Graphics/SVG/1.1/DTD/svg11.dtd">
<svg version="1.1" xmlns="http://www.w3.org/2000/svg" xmlns:xlink="http://www.w3.org/1999/xlink" x="0px" y="0px"
	 width="168.017px" height="157.529px" viewBox="0 0 168.017 157.529" enable-background="new 0 0 168.017 157.529"
	 xml:space="preserve">
<g id="Layer_5" display="none">
</g>
<g id="Layer_1">
</g>
<g id="Layer_6">
</g>
<g id="Layer_2">
</g>
<g id="Layer_3">
	<g>
		<path fill="none" stroke="#FFFFFF" stroke-width="4.8985" stroke-miterlimit="10" d="M85.882,145.318L85.882,145.318
			c-37.646,0-68.16-30.512-68.16-68.156l0,0C17.722,39.521,48.235,9,85.882,9l0,0c37.641,0,68.156,30.521,68.156,68.162l0,0
			C154.038,114.807,123.522,145.318,85.882,145.318z"/>
		<path fill="#FFFFFF" d="M65.005,63.496h8.943v-8.115c0-3.578,0.1-9.088,2.887-12.51c2.928-3.615,6.955-6.078,13.883-6.078
			c11.283,0,16.035,1.504,16.035,1.504l-2.232,12.365c0,0-3.732-1.012-7.209-1.012c-3.479,0-6.594,1.17-6.594,4.412v9.434h14.266
			l-1,12.074H90.718v41.957h-16.77V75.57h-8.943V63.496z"/>
	</g>
</g>
<g id="Retícula" display="none">
</g>
</svg>
