<?xml version="1.0" encoding="utf-8"?>
<!-- Generator: Adobe Illustrator 16.0.0, SVG Export Plug-In . SVG Version: 6.00 Build 0)  -->
<!DOCTYPE svg PUBLIC "-//W3C//DTD SVG 1.1//EN" "http://www.w3.org/Graphics/SVG/1.1/DTD/svg11.dtd">
<svg version="1.1" xmlns="http://www.w3.org/2000/svg" xmlns:xlink="http://www.w3.org/1999/xlink" x="0px" y="0px"
	 width="168.017px" height="157.529px" viewBox="0 0 168.017 157.529" enable-background="new 0 0 168.017 157.529"
	 xml:space="preserve">
<g id="Layer_5" display="none">
</g>
<g id="Layer_1">
</g>
<g id="Layer_6">
</g>
<g id="Layer_2">
</g>
<g id="Layer_3">
	<g>
		<path fill="none" stroke="#FFFFFF" stroke-width="5.0726" stroke-miterlimit="10" d="M86.973,144.244h-0.653
			c-37.641,0-68.151-30.518-68.151-68.158v-0.646c0-37.648,30.511-68.156,68.151-68.156h0.653c37.644,0,68.153,30.508,68.153,68.156
			v0.646C155.126,113.727,124.616,144.244,86.973,144.244z"/>
		<path fill="#FFFFFF" d="M121.593,54.084c-2.568,1.139-5.336,1.91-8.232,2.258c2.961-1.768,5.238-4.576,6.301-7.936
			c-2.762,1.645-5.834,2.84-9.104,3.48c-2.612-2.785-6.342-4.521-10.466-4.521c-7.922,0-14.342,6.422-14.342,14.338
			c0,1.119,0.127,2.215,0.377,3.266c-11.918-0.6-22.49-6.309-29.562-14.986c-1.233,2.119-1.934,4.592-1.934,7.211
			c0,4.969,2.528,9.369,6.371,11.932c-2.352-0.066-4.562-0.711-6.498-1.791v0.184c0,6.941,4.947,12.746,11.504,14.061
			c-1.199,0.326-2.471,0.506-3.781,0.506c-0.919,0-1.815-0.094-2.693-0.26c1.826,5.697,7.121,9.848,13.395,9.961
			c-4.904,3.846-11.086,6.135-17.809,6.135c-1.159,0-2.294-0.068-3.424-0.201c6.351,4.064,13.888,6.441,21.994,6.441
			c26.371,0,40.794-21.846,40.794-40.799c0-0.619-0.017-1.238-0.042-1.859C117.237,59.496,119.672,56.961,121.593,54.084z"/>
	</g>
</g>
<g id="Retícula" display="none">
	<g display="inline">
		<g>
			<rect x="6.97" y="-8829.545" opacity="0.3" fill="#42A5F5" width="81.698" height="9161.738"/>
			<rect x="102.876" y="-8829.545" opacity="0.3" fill="#42A5F5" width="81.699" height="9161.738"/>
		</g>
	</g>
</g>
</svg>
