<?xml version="1.0" encoding="utf-8"?>
<!-- Generator: Adobe Illustrator 16.0.0, SVG Export Plug-In . SVG Version: 6.00 Build 0)  -->
<!DOCTYPE svg PUBLIC "-//W3C//DTD SVG 1.1//EN" "http://www.w3.org/Graphics/SVG/1.1/DTD/svg11.dtd">
<svg version="1.1" xmlns="http://www.w3.org/2000/svg" xmlns:xlink="http://www.w3.org/1999/xlink" x="0px" y="0px"
	 width="346.99px" height="72.157px" viewBox="0 0 346.99 72.157" enable-background="new 0 0 346.99 72.157" xml:space="preserve">
<g id="Layer_5" display="none">
</g>
<g id="Layer_1">
	<g>
		<g>
			<path fill="#FFFFFF" d="M47.316,55.276c-1.672-3.37-2.499-7.963,1.083-13.014c2.822-3.98,5.832-7.316,3.545-14.9
				c4.495,5.191,5.815,11.417,4.094,16.07C53.944,49.091,49.018,50.112,47.316,55.276z"/>
			<path fill="#FFFFFF" d="M35.503,56.779c-9.855-1.406-20.112-14.062-9.819-27.762C35.441,16.031,41.766,9.772,35.089,0
				c10.171,8.571,5.712,19.228-2.493,31.854C28.357,38.38,26.215,49.038,35.503,56.779z"/>
			<path fill="#FFFFFF" d="M6.844,62.255c0,0,3.99-0.648,14.619-3.447c5.54-1.454,11.819-0.438,14.395,2.205
				c2.314,2.365,3.127,5.261,3.296,5.712c0.261,0.693,0.551,2.249,0.551,2.249s0.93-2.484,1.239-2.94
				c0.211-0.305,1.379-0.348,2.254-2.682c0.654-1.734,0.023-4.17-3.119-6.375c-6.783-4.761-7.606-16.257-1.721-24.91
				c7.317-10.763,8.33-16.481,5.039-21.5c11.385,10.33,4.826,21.167,1.063,26.67c-3.265,4.77-4.355,8.818-3.336,13.461
				c0.207,0.996,0.387,2.506,1.272,4.115c0.826,1.284,2.161,4.796,4.3,4.006c3.393-1.252,6.715-0.465,12.389,0.746
				c9.619,2.049,13.21,2.691,13.21,2.691l7.265,9.902c0,0-17.593-3.416-23.802-4.307c-7.064-1.014-13.679,0.104-16.045,4.199
				c-2.34-4.042-8.812-5.206-15.592-4.238C17.994,68.685,0,72.157,0,72.157L6.844,62.255z"/>
		</g>
		<g>
			<g>
				<path fill-rule="evenodd" clip-rule="evenodd" fill="#FFFFFF" d="M86.123,71.429v-0.593c1.011-0.107,1.772-0.383,2.287-0.827
					c0.518-0.446,0.92-1.189,1.21-2.243c0.19-0.738,0.397-1.829,0.621-3.276c0.228-1.446,0.47-3.195,0.728-5.25
					c0.212-1.758,0.381-3.278,0.505-4.565c0.124-1.285,0.187-2.097,0.187-2.441c0-0.995-0.287-1.747-0.861-2.256
					c-0.577-0.507-1.485-0.823-2.73-0.938V48.45c0.452,0.02,0.934,0.037,1.451,0.044c0.511,0.016,1.268,0.02,2.27,0.02
					c0.996,0,1.737-0.004,2.213-0.02c0.474-0.007,0.912-0.024,1.314-0.044v0.498c-0.124,0.129-0.212,0.249-0.27,0.36
					c-0.06,0.112-0.089,0.221-0.089,0.329c0,0.684,0.593,2.361,1.772,5.025c0.042,0.097,0.075,0.17,0.096,0.224l5.158,11.467
					l6.299-13.989c0.021-0.032,0.049-0.086,0.076-0.16c0.432-0.889,0.646-1.642,0.646-2.265c0-0.224-0.021-0.411-0.068-0.559
					c-0.05-0.151-0.136-0.293-0.249-0.433V48.45c0.407,0.02,0.854,0.037,1.347,0.044c0.493,0.016,1.251,0.02,2.271,0.02
					c1.052,0,1.849-0.004,2.39-0.02c0.54-0.007,1.057-0.024,1.54-0.044v0.591c-1.212,0.042-2.094,0.374-2.645,0.996
					c-0.547,0.619-0.822,1.604-0.822,2.954c0,0.172,0.009,0.439,0.023,0.798c0.02,0.357,0.042,0.831,0.072,1.418l0.692,10.652
					c0.141,2.108,0.457,3.426,0.96,3.956c0.499,0.534,1.457,0.867,2.864,1.005v0.609c-1.159-0.02-2.124-0.038-2.9-0.048
					c-0.767-0.014-1.515-0.018-2.239-0.018c-1.161,0-3.025,0.021-5.602,0.066h-0.402V70.82c1.643-0.193,2.75-0.546,3.324-1.06
					c0.577-0.514,0.861-1.421,0.861-2.713c0-0.258-0.001-0.46-0.007-0.594c-0.006-0.143-0.012-0.264-0.021-0.373l-0.796-13.683
					l-5.069,11.193c-0.442,0.939-0.945,2.062-1.499,3.375c-0.562,1.31-1.226,2.895-1.995,4.761h-0.342
					c-0.421-0.954-0.853-1.955-1.296-3.006c-0.449-1.051-0.687-1.615-0.718-1.691l-6.139-13.733l-0.452,4.4
					c-0.203,1.941-0.358,3.748-0.465,5.423c-0.107,1.673-0.165,2.995-0.165,3.958c0,1.283,0.271,2.174,0.802,2.665
					c0.531,0.495,1.64,0.853,3.325,1.077v0.609c-0.064,0-0.163,0-0.293,0c-2.163-0.045-3.752-0.066-4.761-0.066
					c-0.579,0-1.192,0.003-1.827,0.018C88.068,71.392,87.205,71.41,86.123,71.429z"/>
				<path fill-rule="evenodd" clip-rule="evenodd" fill="#FFFFFF" d="M122.297,61.182c0,2.881,0.689,5.226,2.076,7.047
					c1.392,1.818,3.156,2.726,5.308,2.726c2.116,0,3.813-0.806,5.102-2.419c1.285-1.611,1.931-3.763,1.931-6.452
					c0-1.194-0.149-2.339-0.455-3.443c-0.302-1.101-0.729-2.069-1.284-2.909c-0.747-1.131-1.589-1.969-2.521-2.515
					c-0.938-0.544-1.999-0.818-3.185-0.818c-2.084,0-3.773,0.805-5.052,2.415C122.938,56.426,122.297,58.548,122.297,61.182z
					 M118.967,61.573c0-3.034,0.963-5.457,2.89-7.269s4.499-2.721,7.718-2.721c3.159,0,5.688,0.937,7.588,2.806
					c1.9,1.875,2.85,4.363,2.85,7.468c0,2.99-0.962,5.393-2.904,7.209c-1.934,1.819-4.502,2.726-7.702,2.726
					c-3.161,0-5.692-0.928-7.589-2.788C119.919,67.147,118.967,64.671,118.967,61.573z"/>
				<path fill-rule="evenodd" clip-rule="evenodd" fill="#FFFFFF" d="M141.191,71.429l-0.013-0.503
					c1.441-0.073,2.422-0.542,2.948-1.412c0.526-0.869,0.785-2.661,0.785-5.379v-5.372c0-0.248,0.009-0.572,0.017-0.979
					c0.009-0.411,0.015-0.695,0.015-0.859c0-0.882-0.099-1.563-0.273-2.046c-0.183-0.482-0.485-0.916-0.903-1.308
					c-0.356-0.328-0.781-0.588-1.28-0.785c-0.5-0.193-1.051-0.316-1.66-0.361v-0.505c0.301,0,0.74,0.013,1.317,0.028
					c0.573,0.021,0.993,0.031,1.257,0.031c0.274,0,0.672-0.01,1.193-0.031c0.521-0.015,0.895-0.028,1.133-0.028l13.995,14.971
					v-6.447c0-2.42-0.066-4.051-0.203-4.896c-0.13-0.845-0.362-1.474-0.702-1.882c-0.281-0.361-0.678-0.644-1.203-0.844
					c-0.515-0.2-1.157-0.334-1.923-0.396v-0.505c0.491,0.019,1.023,0.033,1.587,0.043c0.564,0.009,1.39,0.015,2.478,0.015
					c1.074,0,1.87-0.006,2.388-0.015c0.517-0.011,0.984-0.024,1.411-0.043v0.505h-0.22c-0.997,0-1.695,0.5-2.089,1.499
					c-0.403,1.001-0.603,2.86-0.603,5.577v5.972c0,1.39,0.014,2.623,0.032,3.702c0.022,1.072,0.049,2.068,0.076,2.984h-0.146
					c-0.565-0.653-1.177-1.36-1.835-2.112c-0.662-0.757-1.028-1.177-1.101-1.26l-11.834-12.528v5.521
					c0,2.717,0.053,4.547,0.158,5.488c0.104,0.942,0.286,1.616,0.541,2.025c0.236,0.391,0.619,0.713,1.147,0.967
					c0.526,0.255,1.274,0.472,2.241,0.656v0.516c-0.021,0-0.045,0-0.08,0c-1.926-0.038-3.366-0.057-4.312-0.057
					c-0.527,0-1.099,0.005-1.712,0.015C143.209,71.396,142.332,71.411,141.191,71.429z"/>
				<path fill-rule="evenodd" clip-rule="evenodd" fill="#FFFFFF" d="M174.945,65.567c0,1.399,0.057,2.386,0.173,2.958
					c0.113,0.573,0.306,0.989,0.579,1.256c0.293,0.272,0.688,0.502,1.175,0.687c0.489,0.191,1.124,0.34,1.885,0.458l-0.016,0.503
					c-1.374-0.019-2.421-0.034-3.142-0.042c-0.72-0.01-1.384-0.015-1.995-0.015c-1.137,0-2.839,0.02-5.096,0.057h-0.077v-0.503
					c0.769-0.118,1.404-0.268,1.902-0.458c0.488-0.185,0.882-0.414,1.163-0.687c0.284-0.267,0.482-0.683,0.595-1.256
					c0.113-0.572,0.171-1.559,0.171-2.958V52.872h-1.936c-1.748,0-3.029,0.27-3.829,0.808c-0.801,0.539-1.379,1.482-1.736,2.831
					l-0.475-0.083l0.529-5.404h0.329l0.845,0.896c0.882,0,2.167,0.004,3.87,0.014c1.708,0.008,2.979,0.014,3.825,0.014
					c0.839,0,2.098-0.005,3.771-0.014c1.681-0.01,2.937-0.014,3.762-0.014l0.935-0.896h0.215l0.475,5.459l-0.45,0.096
					c-0.327-1.331-0.896-2.282-1.71-2.849c-0.818-0.572-2.025-0.858-3.631-0.858h-2.105V65.567z"/>
				<path fill-rule="evenodd" clip-rule="evenodd" fill="#FFFFFF" d="M183.277,71.429v-0.503c1.496-0.183,2.486-0.498,2.969-0.952
					c0.482-0.453,0.728-1.42,0.728-2.904V56.343c0-1.571-0.243-2.603-0.718-3.108c-0.479-0.504-1.368-0.784-2.67-0.837v-0.506
					c0.913,0.024,1.881,0.04,2.917,0.044c1.021,0.006,2.518,0.01,4.478,0.01c2.286,0,3.96-0.001,5.027-0.01
					c1.058-0.005,2.015-0.018,2.859-0.03c-0.084,0.619-0.154,1.284-0.215,1.995c-0.065,0.707-0.117,1.525-0.175,2.442h-0.42
					c-0.096-1.377-0.48-2.333-1.163-2.867c-0.686-0.533-1.895-0.799-3.628-0.799h-3.659v8.06h2.813c1.543,0,2.603-0.195,3.192-0.585
					c0.584-0.391,0.963-1.101,1.122-2.129h0.454c0,0.51-0.02,1.311-0.062,2.407c-0.039,1.092-0.062,1.943-0.062,2.553v1.619h-0.407
					c-0.092-0.979-0.438-1.661-1.037-2.048c-0.605-0.388-1.657-0.583-3.176-0.583h-2.838v4.977c0,1.521,0.307,2.521,0.925,3.003
					c0.627,0.484,1.832,0.725,3.628,0.725c1.662,0,2.959-0.408,3.894-1.218c0.934-0.81,1.561-2.065,1.88-3.766l0.447,0.055
					c-0.051,1.054-0.172,2.064-0.348,3.027c-0.177,0.96-0.412,1.865-0.717,2.712c-1.317-0.038-2.766-0.065-4.334-0.086
					c-1.565-0.017-3.277-0.028-5.126-0.028c-1.724,0-3.047,0.005-3.965,0.015C184.972,71.396,184.098,71.411,183.277,71.429z"/>
				<path fill-rule="evenodd" clip-rule="evenodd" fill="#FFFFFF" d="M200.743,71.429v-0.503c0.857-0.089,1.503-0.323,1.941-0.705
					c0.436-0.375,0.78-1.011,1.028-1.898c0.161-0.631,0.336-1.556,0.528-2.783c0.19-1.227,0.394-2.712,0.613-4.457
					c0.181-1.492,0.327-2.783,0.43-3.873c0.103-1.094,0.155-1.781,0.155-2.076c0-0.841-0.245-1.482-0.731-1.914
					c-0.484-0.43-1.255-0.7-2.315-0.797v-0.505c0.387,0.019,0.794,0.033,1.23,0.043c0.438,0.009,1.082,0.015,1.928,0.015
					c0.849,0,1.478-0.006,1.883-0.015c0.403-0.011,0.774-0.024,1.111-0.043v0.426c-0.104,0.108-0.176,0.211-0.228,0.309
					c-0.048,0.094-0.072,0.186-0.072,0.277c0,0.583,0.495,2.002,1.502,4.267c0.039,0.081,0.065,0.145,0.085,0.191l4.374,9.736
					l5.344-11.877c0.021-0.028,0.045-0.074,0.07-0.136c0.364-0.755,0.548-1.395,0.548-1.922c0-0.189-0.021-0.351-0.059-0.476
					c-0.043-0.127-0.112-0.253-0.214-0.37v-0.426c0.346,0.019,0.728,0.033,1.146,0.043c0.421,0.009,1.064,0.015,1.927,0.015
					c0.896,0,1.574-0.006,2.033-0.015c0.461-0.011,0.896-0.024,1.303-0.043v0.505c-1.027,0.037-1.779,0.318-2.247,0.847
					c-0.46,0.525-0.693,1.36-0.693,2.505c0,0.149,0.007,0.374,0.022,0.678c0.012,0.303,0.033,0.707,0.057,1.205l0.588,9.042
					c0.117,1.789,0.389,2.909,0.814,3.359c0.426,0.449,1.233,0.734,2.432,0.854v0.516c-0.986-0.019-1.802-0.034-2.457-0.042
					c-0.659-0.01-1.294-0.015-1.904-0.015c-0.981,0-2.568,0.02-4.754,0.057h-0.345v-0.516c1.394-0.164,2.331-0.465,2.821-0.9
					c0.489-0.437,0.729-1.204,0.729-2.304c0-0.216,0-0.387-0.001-0.506c-0.007-0.119-0.015-0.221-0.02-0.313l-0.672-11.616
					l-4.308,9.501c-0.371,0.798-0.795,1.751-1.271,2.862c-0.476,1.114-1.04,2.459-1.693,4.043h-0.289
					c-0.356-0.809-0.726-1.66-1.104-2.552c-0.377-0.892-0.578-1.37-0.605-1.437l-5.212-11.654l-0.383,3.734
					c-0.171,1.649-0.305,3.179-0.396,4.603c-0.092,1.423-0.136,2.542-0.136,3.36c0,1.089,0.228,1.846,0.678,2.263
					c0.449,0.418,1.391,0.723,2.819,0.915v0.516c-0.052,0-0.134,0-0.243,0c-1.84-0.038-3.19-0.057-4.042-0.057
					c-0.493,0-1.015,0.005-1.549,0.015C202.393,71.396,201.659,71.411,200.743,71.429z"/>
				<path fill-rule="evenodd" clip-rule="evenodd" fill="#FFFFFF" d="M232.115,61.182c0,2.881,0.696,5.226,2.078,7.047
					c1.39,1.818,3.155,2.726,5.308,2.726c2.113,0,3.818-0.806,5.101-2.419c1.288-1.611,1.932-3.763,1.932-6.452
					c0-1.194-0.15-2.339-0.449-3.443c-0.302-1.101-0.732-2.069-1.288-2.909c-0.748-1.131-1.589-1.969-2.521-2.515
					c-0.934-0.544-1.994-0.818-3.184-0.818c-2.087,0-3.77,0.805-5.052,2.415C232.761,56.426,232.115,58.548,232.115,61.182z
					 M228.789,61.573c0-3.034,0.961-5.457,2.888-7.269s4.502-2.721,7.719-2.721c3.16,0,5.692,0.937,7.591,2.806
					c1.896,1.875,2.848,4.363,2.848,7.468c0,2.99-0.966,5.393-2.904,7.209c-1.936,1.819-4.503,2.726-7.701,2.726
					c-3.162,0-5.691-0.928-7.591-2.788C229.732,67.147,228.789,64.671,228.789,61.573z"/>
				<path fill-rule="evenodd" clip-rule="evenodd" fill="#FFFFFF" d="M257.954,61.633c1.944-0.108,3.433-0.562,4.466-1.357
					c1.037-0.793,1.552-1.876,1.552-3.247c0-1.399-0.527-2.51-1.588-3.324c-1.056-0.819-2.534-1.255-4.43-1.308V61.633z
					 M251.796,71.429l-0.013-0.503c1.417-0.089,2.372-0.395,2.853-0.913c0.475-0.517,0.714-1.793,0.714-3.828v-9.374
					c0-1.154-0.049-1.976-0.155-2.46c-0.103-0.483-0.287-0.837-0.552-1.055c-0.225-0.189-0.531-0.353-0.915-0.492
					c-0.382-0.132-0.915-0.261-1.593-0.379v-0.505c2.079-0.015,4.231-0.042,6.465-0.084c0.563-0.016,0.9-0.026,1.011-0.026
					c2.452,0,4.27,0.399,5.448,1.2c1.176,0.799,1.77,2.021,1.77,3.663c0,1.03-0.292,1.927-0.869,2.693
					c-0.574,0.768-1.435,1.396-2.572,1.888c1.738,3.312,3.381,5.752,4.919,7.319c1.539,1.565,3.174,2.479,4.9,2.744l-0.079,0.479
					c-0.137-0.008-0.342-0.017-0.613-0.028c-2.468-0.116-4.136-0.363-4.989-0.737c-0.55-0.247-1.074-0.623-1.579-1.135
					c-0.508-0.509-1.113-1.305-1.827-2.389c-0.483-0.72-0.998-1.573-1.541-2.562c-0.547-0.985-0.902-1.585-1.067-1.793
					c-0.182-0.24-0.432-0.42-0.746-0.546c-0.313-0.129-0.795-0.23-1.44-0.303l-1.369-0.161v4.046c0,1.924,0.277,3.169,0.826,3.732
					c0.55,0.561,1.63,0.899,3.232,1.008v0.503c-1.461-0.027-2.544-0.045-3.26-0.048c-0.716-0.004-1.376-0.009-1.978-0.009
					c-0.611,0-1.27,0.005-1.985,0.015C254.081,71.396,253.078,71.411,251.796,71.429z"/>
				<path fill-rule="evenodd" clip-rule="evenodd" fill="#FFFFFF" d="M273.04,71.429v-0.503c1.495-0.183,2.489-0.498,2.97-0.952
					c0.483-0.453,0.726-1.42,0.726-2.904V56.343c0-1.571-0.241-2.603-0.716-3.108c-0.481-0.504-1.369-0.784-2.67-0.837v-0.506
					c0.911,0.024,1.878,0.04,2.908,0.044c1.027,0.006,2.529,0.01,4.484,0.01c2.288,0,3.959-0.001,5.022-0.01
					c1.062-0.005,2.021-0.018,2.867-0.03c-0.089,0.619-0.158,1.284-0.218,1.995c-0.06,0.707-0.117,1.525-0.176,2.442h-0.42
					c-0.095-1.377-0.479-2.333-1.161-2.867c-0.687-0.533-1.891-0.799-3.627-0.799h-3.667v8.06h2.82c1.537,0,2.601-0.195,3.19-0.585
					c0.589-0.391,0.96-1.101,1.128-2.129h0.447c0,0.51-0.021,1.311-0.059,2.407c-0.039,1.092-0.064,1.943-0.064,2.553v1.619h-0.409
					c-0.094-0.979-0.435-1.661-1.038-2.048c-0.6-0.388-1.658-0.583-3.171-0.583h-2.845v4.977c0,1.521,0.312,2.521,0.933,3.003
					c0.62,0.484,1.828,0.725,3.624,0.725c1.665,0,2.963-0.408,3.896-1.218c0.931-0.81,1.561-2.065,1.881-3.766l0.445,0.055
					c-0.051,1.054-0.173,2.064-0.35,3.027c-0.172,0.96-0.41,1.865-0.714,2.712c-1.322-0.038-2.768-0.065-4.332-0.086
					c-1.569-0.017-3.277-0.028-5.129-0.028c-1.724,0-3.044,0.005-3.966,0.015C274.734,71.396,273.861,71.411,273.04,71.429z"/>
				<path fill-rule="evenodd" clip-rule="evenodd" fill="#FFFFFF" d="M291.649,71.429v-0.503c1.456-0.107,2.422-0.436,2.91-0.98
					c0.491-0.543,0.735-1.795,0.735-3.754v-9.479c0-1.694-0.242-2.796-0.72-3.305c-0.479-0.509-1.452-0.838-2.926-0.983v-0.505
					c0.569,0.019,1.181,0.033,1.841,0.043c0.657,0.009,1.658,0.015,3.001,0.015c1.345,0,2.364-0.006,3.037-0.015
					c0.681-0.011,1.323-0.024,1.92-0.043v0.505c-1.439,0.118-2.401,0.443-2.884,0.977c-0.484,0.533-0.729,1.637-0.729,3.311v9.479
					c0,1.362,0.033,2.279,0.088,2.746c0.053,0.464,0.143,0.83,0.273,1.092c0.116,0.219,0.388,0.374,0.815,0.458
					c0.431,0.085,1.265,0.129,2.49,0.129c1.312,0,2.26-0.056,2.839-0.172c0.578-0.111,1.082-0.304,1.499-0.565
					c0.548-0.34,1.063-0.812,1.557-1.422c0.492-0.611,1.024-1.438,1.59-2.488l0.354,0.167l-1.598,5.321
					c-1.735-0.029-3.263-0.048-4.596-0.064c-1.33-0.013-2.631-0.021-3.91-0.021c-0.726,0-1.939,0.011-3.632,0.03
					C293.921,71.42,292.602,71.429,291.649,71.429z"/>
				<path fill-rule="evenodd" clip-rule="evenodd" fill="#FFFFFF" d="M314.019,61.182c0,2.881,0.69,5.226,2.077,7.047
					c1.385,1.818,3.152,2.726,5.304,2.726c2.119,0,3.822-0.806,5.104-2.419c1.284-1.611,1.926-3.763,1.926-6.452
					c0-1.194-0.151-2.339-0.451-3.443c-0.298-1.101-0.726-2.069-1.282-2.909c-0.746-1.131-1.589-1.969-2.524-2.515
					c-0.934-0.544-1.994-0.818-3.18-0.818c-2.09,0-3.774,0.805-5.056,2.415C314.656,56.426,314.019,58.548,314.019,61.182z
					 M310.684,61.573c0-3.034,0.966-5.457,2.893-7.269c1.93-1.812,4.504-2.721,7.713-2.721c3.162,0,5.696,0.937,7.596,2.806
					c1.899,1.875,2.852,4.363,2.852,7.468c0,2.99-0.972,5.393-2.904,7.209c-1.938,1.819-4.503,2.726-7.706,2.726
					c-3.157,0-5.69-0.928-7.588-2.788C311.637,67.147,310.684,64.671,310.684,61.573z"/>
				<path fill-rule="evenodd" clip-rule="evenodd" fill="#FFFFFF" d="M334.146,65.552l0.504-0.027
					c0.496,1.786,1.24,3.148,2.235,4.08c0.995,0.938,2.186,1.406,3.578,1.406c1.085,0,1.979-0.33,2.692-0.985
					c0.708-0.659,1.062-1.475,1.062-2.462c0-0.84-0.235-1.607-0.717-2.305c-0.476-0.696-1.187-1.329-2.133-1.895l-2.243-1.31
					c-1.203-0.702-2.09-1.467-2.665-2.297c-0.572-0.827-0.863-1.753-0.863-2.776c0-1.556,0.595-2.855,1.779-3.897
					c1.187-1.036,2.688-1.556,4.498-1.556c0.803,0,1.573,0.101,2.315,0.3c0.733,0.203,1.465,0.512,2.188,0.933
					c-0.079,0.566-0.142,1.19-0.188,1.875c-0.05,0.683-0.092,1.484-0.12,2.406h-0.504c-0.213-1.569-0.648-2.753-1.326-3.554
					c-0.675-0.802-1.57-1.205-2.678-1.205c-1.012,0-1.85,0.325-2.511,0.978c-0.657,0.652-0.987,1.473-0.987,2.467
					c0,0.667,0.213,1.312,0.645,1.941c0.424,0.629,1.021,1.176,1.787,1.641l3.248,1.964c1.116,0.677,1.931,1.417,2.461,2.229
					c0.527,0.809,0.787,1.735,0.787,2.773c0,1.592-0.651,2.928-1.953,4.009c-1.305,1.081-2.915,1.62-4.84,1.62
					c-1.019,0-1.984-0.13-2.903-0.388c-0.909-0.259-1.732-0.634-2.48-1.124c-0.163-0.773-0.305-1.57-0.419-2.381
					C334.281,67.201,334.201,66.381,334.146,65.552z"/>
			</g>
			<g>
				<path fill-rule="evenodd" clip-rule="evenodd" fill="#FFFFFF" d="M90.211,29.239v-8.472c0-1.437-0.06-2.408-0.187-2.915
					c-0.121-0.504-0.347-0.882-0.669-1.14c-0.395-0.314-0.853-0.552-1.383-0.718c-0.526-0.167-1.142-0.269-1.85-0.313v-0.594
					c0.696,0.022,1.442,0.041,2.239,0.049c0.796,0.012,1.995,0.018,3.606,0.018c1.632,0,2.854-0.006,3.664-0.018
					c0.812-0.008,1.564-0.026,2.263-0.049l0.015,0.594c-1.807,0.053-3.026,0.415-3.654,1.078c-0.631,0.667-0.943,1.993-0.943,3.979
					v8.181c0,1.607,0.119,2.848,0.361,3.719c0.243,0.869,0.644,1.604,1.217,2.206c0.652,0.697,1.492,1.232,2.513,1.61
					c1.019,0.374,2.163,0.561,3.43,0.561c1.591,0,2.893-0.285,3.909-0.858c1.011-0.578,1.818-1.496,2.423-2.763
					c0.296-0.632,0.509-1.547,0.636-2.742c0.119-1.201,0.184-3.108,0.184-5.727c0-2.556-0.065-4.333-0.203-5.328
					c-0.132-0.999-0.358-1.743-0.683-2.225c-0.389-0.557-0.919-0.973-1.599-1.25c-0.676-0.271-1.539-0.419-2.595-0.44v-0.594
					c0.593,0.022,1.222,0.041,1.889,0.049c0.664,0.012,1.67,0.018,3.024,0.018c1.366,0,2.381-0.006,3.057-0.018
					c0.674-0.008,1.291-0.026,1.855-0.049v0.594h-0.062c-1.299,0-2.191,0.499-2.672,1.498c-0.483,0.997-0.725,3.515-0.725,7.546
					c0,0.343-0.005,0.857-0.018,1.544c-0.042,3.734-0.351,6.272-0.935,7.613c-0.659,1.545-1.768,2.718-3.3,3.518
					c-1.531,0.799-3.443,1.198-5.728,1.198c-1.835,0-3.404-0.247-4.703-0.742c-1.298-0.491-2.307-1.226-3.023-2.201
					c-0.485-0.666-0.83-1.433-1.042-2.3C90.32,32.487,90.211,31.112,90.211,29.239z"/>
				<path fill-rule="evenodd" clip-rule="evenodd" fill="#FFFFFF" d="M113.239,38.069l-0.013-0.503
					c1.44-0.074,2.421-0.542,2.946-1.411c0.521-0.869,0.786-2.664,0.786-5.379v-5.372c0-0.245,0.007-0.572,0.016-0.981
					c0.006-0.409,0.014-0.694,0.014-0.858c0-0.882-0.094-1.564-0.273-2.046c-0.186-0.483-0.479-0.92-0.9-1.31
					c-0.357-0.328-0.783-0.59-1.281-0.785c-0.494-0.194-1.045-0.316-1.66-0.358v-0.506c0.304,0,0.741,0.007,1.316,0.03
					c0.576,0.016,0.993,0.025,1.256,0.025c0.275,0,0.673-0.009,1.196-0.025c0.516-0.022,0.896-0.03,1.131-0.03l13.99,14.969v-6.449
					c0-2.417-0.061-4.048-0.189-4.895c-0.136-0.846-0.369-1.473-0.708-1.88c-0.281-0.364-0.683-0.646-1.2-0.846
					c-0.523-0.2-1.163-0.333-1.934-0.393v-0.506c0.497,0.019,1.027,0.033,1.593,0.042c0.566,0.01,1.389,0.013,2.473,0.013
					c1.077,0,1.875-0.002,2.39-0.013c0.517-0.009,0.989-0.023,1.417-0.042v0.506h-0.22c-0.997,0-1.7,0.499-2.095,1.497
					c-0.395,1-0.599,2.86-0.599,5.578v5.969c0,1.391,0.015,2.624,0.032,3.701c0.018,1.074,0.047,2.072,0.082,2.985h-0.157
					c-0.561-0.653-1.173-1.355-1.835-2.114c-0.652-0.757-1.025-1.173-1.096-1.256l-11.832-12.531v5.522
					c0,2.717,0.052,4.545,0.157,5.487c0.106,0.942,0.284,1.616,0.539,2.025c0.238,0.392,0.622,0.715,1.149,0.968
					c0.529,0.254,1.275,0.473,2.241,0.655v0.517c-0.018,0-0.044,0-0.082,0c-1.93-0.035-3.364-0.058-4.315-0.058
					c-0.527,0-1.095,0.006-1.707,0.017C115.254,38.037,114.379,38.052,113.239,38.069z"/>
				<path fill-rule="evenodd" clip-rule="evenodd" fill="#FFFFFF" d="M136.818,38.069v-0.503c1.42-0.083,2.381-0.376,2.887-0.879
					c0.501-0.506,0.75-1.628,0.75-3.364V23.291c0-1.724-0.242-2.839-0.735-3.338c-0.498-0.502-1.462-0.797-2.901-0.886v-0.506
					c0.564,0,1.408,0.007,2.535,0.03c1.124,0.016,1.967,0.025,2.522,0.025c0.555,0,1.378-0.009,2.481-0.025
					c1.096-0.022,1.916-0.03,2.455-0.03v0.506c-1.443,0.088-2.408,0.388-2.901,0.898c-0.497,0.509-0.739,1.619-0.739,3.326v10.032
					c0,1.728,0.248,2.85,0.741,3.364c0.502,0.513,1.462,0.805,2.899,0.879l-0.014,0.503c-1.389-0.028-2.42-0.045-3.097-0.052
					c-0.681-0.001-1.317-0.006-1.909-0.006c-0.591,0-1.229,0.004-1.906,0.006C139.208,38.024,138.185,38.041,136.818,38.069z"/>
				<path fill-rule="evenodd" clip-rule="evenodd" fill="#FFFFFF" d="M157.923,39.104l-6.572-16.036
					c-0.641-1.576-1.236-2.628-1.8-3.157c-0.567-0.528-1.293-0.81-2.174-0.845v-0.506c0.505,0.019,1.061,0.033,1.66,0.042
					c0.596,0.01,1.506,0.013,2.739,0.013c1.258,0,2.206-0.002,2.856-0.013c0.647-0.009,1.249-0.023,1.816-0.042v0.506
					c-0.955,0.015-1.668,0.152-2.133,0.407c-0.466,0.255-0.696,0.641-0.696,1.162c0,0.336,0.137,0.956,0.417,1.849
					c0.275,0.899,0.661,1.945,1.153,3.137l3.775,9.168l3.759-9.168c0.499-1.229,0.863-2.226,1.104-2.989
					c0.229-0.768,0.342-1.359,0.342-1.776c0-0.585-0.234-1.013-0.711-1.286c-0.468-0.274-1.278-0.443-2.419-0.503v-0.506
					c0.511,0.019,1.054,0.033,1.628,0.042c0.577,0.01,1.424,0.013,2.542,0.013c1.094,0,1.908-0.002,2.437-0.013
					c0.523-0.009,1.013-0.023,1.448-0.042v0.506h-0.135c-0.955,0-1.771,0.403-2.483,1.214c-0.703,0.81-1.619,2.551-2.729,5.218
					l-3.526,8.539c-0.092,0.218-0.385,0.967-0.888,2.251c-0.438,1.132-0.8,2.068-1.092,2.815H157.923z"/>
				<path fill-rule="evenodd" clip-rule="evenodd" fill="#FFFFFF" d="M169.354,38.069v-0.503c1.494-0.182,2.488-0.498,2.969-0.95
					c0.482-0.455,0.727-1.421,0.727-2.905V22.983c0-1.566-0.24-2.604-0.715-3.106c-0.479-0.508-1.371-0.784-2.669-0.84v-0.505
					c0.907,0.024,1.88,0.036,2.905,0.046c1.033,0.006,2.525,0.012,4.486,0.012c2.29,0,3.965-0.006,5.023-0.012
					c1.062-0.007,2.012-0.018,2.868-0.032c-0.086,0.62-0.162,1.284-0.221,1.995c-0.06,0.708-0.12,1.524-0.174,2.442h-0.417
					c-0.096-1.379-0.48-2.332-1.17-2.868c-0.68-0.532-1.891-0.796-3.627-0.796h-3.658v8.058h2.816c1.538,0,2.601-0.194,3.19-0.587
					c0.586-0.391,0.959-1.1,1.127-2.127h0.449c0,0.511-0.021,1.312-0.058,2.405c-0.043,1.095-0.064,1.944-0.064,2.558v1.616h-0.404
					c-0.096-0.978-0.442-1.661-1.042-2.05c-0.604-0.388-1.66-0.581-3.173-0.581h-2.842v4.977c0,1.522,0.309,2.521,0.928,3.002
					c0.623,0.483,1.827,0.724,3.628,0.724c1.659,0,2.955-0.405,3.891-1.213c0.933-0.809,1.56-2.064,1.882-3.769l0.445,0.055
					c-0.054,1.058-0.166,2.066-0.347,3.026c-0.177,0.962-0.415,1.866-0.714,2.713c-1.324-0.038-2.766-0.066-4.339-0.083
					c-1.563-0.018-3.275-0.029-5.124-0.029c-1.72,0-3.045,0.006-3.969,0.017C171.047,38.037,170.176,38.052,169.354,38.069z"/>
				<path fill-rule="evenodd" clip-rule="evenodd" fill="#FFFFFF" d="M194.468,28.273c1.944-0.11,3.434-0.561,4.468-1.355
					c1.033-0.795,1.554-1.877,1.554-3.25c0-1.399-0.533-2.506-1.586-3.324c-1.059-0.816-2.537-1.25-4.436-1.307V28.273z
					 M188.309,38.069l-0.01-0.503c1.422-0.091,2.373-0.396,2.848-0.912c0.479-0.52,0.721-1.796,0.721-3.829V23.45
					c0-1.151-0.053-1.972-0.156-2.458c-0.105-0.484-0.288-0.837-0.552-1.055c-0.228-0.192-0.532-0.354-0.917-0.491
					c-0.378-0.133-0.912-0.265-1.596-0.378v-0.506c2.08-0.017,4.232-0.044,6.469-0.088c0.564-0.015,0.898-0.024,1.008-0.024
					c2.451,0,4.27,0.4,5.447,1.202c1.185,0.796,1.773,2.02,1.773,3.664c0,1.027-0.291,1.923-0.869,2.691
					c-0.578,0.769-1.438,1.397-2.576,1.887c1.739,3.313,3.382,5.755,4.92,7.321c1.54,1.562,3.177,2.479,4.902,2.744l-0.078,0.477
					c-0.132-0.01-0.34-0.021-0.615-0.028c-2.469-0.118-4.138-0.365-4.991-0.737c-0.545-0.245-1.073-0.625-1.576-1.135
					c-0.505-0.507-1.114-1.305-1.829-2.39c-0.477-0.718-0.992-1.571-1.538-2.559c-0.548-0.99-0.905-1.588-1.069-1.795
					c-0.179-0.24-0.429-0.418-0.743-0.547c-0.315-0.129-0.798-0.229-1.441-0.303l-1.371-0.162v4.049
					c0,1.925,0.277,3.169,0.829,3.731c0.553,0.565,1.628,0.898,3.231,1.009v0.503c-1.463-0.028-2.542-0.045-3.264-0.052
					c-0.712-0.001-1.371-0.006-1.977-0.006c-0.609,0-1.268,0.006-1.982,0.017C190.596,38.037,189.601,38.052,188.309,38.069z"/>
				<path fill-rule="evenodd" clip-rule="evenodd" fill="#FFFFFF" d="M210.49,32.191l0.503-0.028
					c0.498,1.789,1.245,3.149,2.238,4.085c0.996,0.934,2.186,1.402,3.577,1.402c1.084,0,1.983-0.328,2.69-0.986
					c0.712-0.653,1.067-1.478,1.067-2.46c0-0.839-0.238-1.607-0.719-2.305c-0.477-0.699-1.19-1.328-2.141-1.894l-2.234-1.312
					c-1.205-0.699-2.094-1.466-2.666-2.297c-0.575-0.829-0.861-1.753-0.861-2.773c0-1.558,0.592-2.859,1.777-3.897
					c1.187-1.037,2.688-1.56,4.501-1.56c0.798,0,1.572,0.101,2.308,0.303c0.739,0.202,1.469,0.513,2.188,0.933
					c-0.073,0.565-0.134,1.187-0.187,1.873c-0.055,0.685-0.088,1.485-0.122,2.408h-0.504c-0.21-1.57-0.651-2.756-1.326-3.558
					c-0.668-0.8-1.566-1.2-2.674-1.2c-1.013,0-1.85,0.326-2.51,0.976c-0.658,0.65-0.99,1.475-0.99,2.47
					c0,0.661,0.213,1.307,0.642,1.938c0.428,0.628,1.023,1.174,1.787,1.642l3.252,1.966c1.115,0.673,1.935,1.414,2.458,2.227
					c0.528,0.811,0.791,1.733,0.791,2.774c0,1.593-0.652,2.929-1.956,4.009c-1.3,1.079-2.918,1.618-4.84,1.618
					c-1.015,0-1.985-0.128-2.897-0.386c-0.909-0.261-1.739-0.635-2.491-1.123c-0.159-0.776-0.297-1.571-0.41-2.381
					C210.629,33.842,210.541,33.021,210.49,32.191z"/>
				<path fill-rule="evenodd" clip-rule="evenodd" fill="#FFFFFF" d="M225.047,38.069v-0.503c1.424-0.083,2.383-0.376,2.885-0.879
					c0.504-0.506,0.754-1.628,0.754-3.364V23.291c0-1.724-0.244-2.839-0.74-3.338c-0.491-0.502-1.457-0.797-2.898-0.886v-0.506
					c0.564,0,1.405,0.007,2.533,0.03c1.127,0.016,1.967,0.025,2.525,0.025c0.552,0,1.379-0.009,2.48-0.025
					c1.094-0.022,1.912-0.03,2.453-0.03v0.506c-1.441,0.088-2.406,0.388-2.901,0.898c-0.491,0.509-0.738,1.619-0.738,3.326v10.032
					c0,1.728,0.251,2.85,0.743,3.364c0.499,0.513,1.464,0.805,2.896,0.879l-0.015,0.503c-1.387-0.028-2.417-0.045-3.097-0.052
					c-0.68-0.001-1.316-0.006-1.905-0.006c-0.595,0-1.231,0.004-1.911,0.006C227.437,38.024,226.41,38.041,225.047,38.069z"/>
				<path fill-rule="evenodd" clip-rule="evenodd" fill="#FFFFFF" d="M242.292,32.945c0,1.815,0.29,3.017,0.874,3.612
					c0.582,0.599,1.674,0.896,3.268,0.896c2.193,0,3.989-0.788,5.378-2.365c1.397-1.574,2.099-3.632,2.099-6.173
					c0-3.07-1.008-5.475-3.017-7.215c-2.011-1.736-4.795-2.607-8.355-2.607h-0.246V32.945z M235.94,38.069v-0.503
					c1.448-0.118,2.421-0.426,2.917-0.924c0.494-0.496,0.745-1.466,0.745-2.905V22.685c0-1.292-0.23-2.181-0.692-2.662
					c-0.467-0.485-1.353-0.804-2.665-0.956v-0.506c1.567-0.017,3.235-0.038,5.004-0.067c1.765-0.029,2.766-0.045,3.007-0.045
					c4.083,0,7.282,0.889,9.597,2.664c2.312,1.777,3.469,4.21,3.469,7.297c0,3.024-1.109,5.404-3.314,7.142
					c-2.211,1.736-5.259,2.602-9.14,2.602c-0.749,0-2.129-0.009-4.138-0.035C238.719,38.095,237.124,38.079,235.94,38.069z"/>
				<path fill-rule="evenodd" clip-rule="evenodd" fill="#FFFFFF" d="M264.505,28.72h5.712l-2.906-7.751L264.505,28.72z
					 M257.795,38.069v-0.503c0.619-0.111,1.116-0.249,1.488-0.416c0.371-0.168,0.688-0.394,0.941-0.674
					c0.381-0.427,1.305-2.598,2.764-6.518c0.326-0.869,0.58-1.544,0.763-2.017l3.188-8.466l-0.111-0.559
					c0.371-0.119,0.706-0.3,1.02-0.541c0.313-0.242,0.637-0.571,0.979-0.992l6.175,16.692c0.516,1.382,1.04,2.301,1.557,2.754
					c0.521,0.453,1.232,0.7,2.147,0.735l-0.016,0.503c-1.095-0.018-1.932-0.033-2.523-0.041c-0.583-0.011-1.133-0.017-1.643-0.017
					c-0.484,0-1.012,0.004-1.58,0.006c-0.568,0.007-1.43,0.023-2.575,0.052l-0.013-0.503c0.692-0.055,1.236-0.227,1.641-0.518
					c0.396-0.292,0.598-0.658,0.598-1.103c0-0.227-0.033-0.495-0.1-0.805c-0.07-0.309-0.178-0.671-0.322-1.088l-1.477-4.13h-6.64
					l-0.517,1.595c-0.375,1.081-0.645,1.962-0.815,2.648c-0.167,0.687-0.25,1.225-0.25,1.614c0,0.591,0.255,1.029,0.77,1.314
					c0.514,0.289,1.318,0.441,2.407,0.471v0.503c-0.017,0-0.044,0-0.079,0c-1.851-0.035-3.205-0.058-4.06-0.058
					c-0.482,0-0.998,0.006-1.543,0.017C259.42,38.037,258.696,38.052,257.795,38.069z"/>
				<path fill-rule="evenodd" clip-rule="evenodd" fill="#FFFFFF" d="M284.861,32.945c0,1.815,0.29,3.017,0.875,3.612
					c0.578,0.599,1.672,0.896,3.266,0.896c2.193,0,3.992-0.788,5.382-2.365c1.396-1.574,2.094-3.632,2.094-6.173
					c0-3.07-1.007-5.475-3.014-7.215c-2.006-1.736-4.797-2.607-8.356-2.607h-0.246V32.945z M278.506,38.069v-0.503
					c1.449-0.118,2.425-0.426,2.924-0.924c0.495-0.496,0.741-1.466,0.741-2.905V22.685c0-1.292-0.228-2.181-0.694-2.662
					c-0.461-0.485-1.352-0.804-2.663-0.956v-0.506c1.57-0.017,3.238-0.038,5.008-0.067c1.766-0.029,2.765-0.045,3.002-0.045
					c4.084,0,7.278,0.889,9.596,2.664c2.316,1.777,3.473,4.21,3.473,7.297c0,3.024-1.105,5.404-3.313,7.142
					c-2.214,1.736-5.257,2.602-9.141,2.602c-0.747,0-2.129-0.009-4.14-0.035C281.289,38.095,279.691,38.079,278.506,38.069z"/>
				<path fill-rule="evenodd" clip-rule="evenodd" fill="#FFFFFF" d="M314.147,32.945c0,1.815,0.29,3.017,0.877,3.612
					c0.583,0.599,1.669,0.896,3.262,0.896c2.193,0,3.991-0.788,5.388-2.365c1.389-1.574,2.089-3.632,2.089-6.173
					c0-3.07-1.007-5.475-3.015-7.215c-2.01-1.736-4.792-2.607-8.355-2.607h-0.245V32.945z M307.792,38.069v-0.503
					c1.455-0.118,2.425-0.426,2.919-0.924c0.501-0.496,0.746-1.466,0.746-2.905V22.685c0-1.292-0.231-2.181-0.693-2.662
					c-0.465-0.485-1.351-0.804-2.662-0.956v-0.506c1.567-0.017,3.231-0.038,5.001-0.067c1.769-0.029,2.771-0.045,3.01-0.045
					c4.08,0,7.276,0.889,9.591,2.664c2.315,1.777,3.476,4.21,3.476,7.297c0,3.024-1.106,5.404-3.317,7.142
					c-2.212,1.736-5.256,2.602-9.142,2.602c-0.741,0-2.124-0.009-4.136-0.035C310.574,38.095,308.977,38.079,307.792,38.069z"/>
				<path fill-rule="evenodd" clip-rule="evenodd" fill="#FFFFFF" d="M329.199,38.069v-0.503c1.496-0.182,2.486-0.498,2.973-0.95
					c0.48-0.455,0.723-1.421,0.723-2.905V22.983c0-1.566-0.234-2.604-0.719-3.106c-0.479-0.508-1.363-0.784-2.67-0.84v-0.505
					c0.91,0.024,1.884,0.036,2.913,0.046c1.032,0.006,2.526,0.012,4.487,0.012c2.285,0,3.96-0.006,5.021-0.012
					c1.058-0.007,2.016-0.018,2.862-0.032c-0.083,0.62-0.155,1.284-0.216,1.995c-0.06,0.708-0.119,1.524-0.177,2.442h-0.421
					c-0.09-1.379-0.476-2.332-1.159-2.868c-0.685-0.532-1.899-0.796-3.626-0.796h-3.666v8.058h2.817
					c1.539,0,2.603-0.194,3.192-0.587c0.587-0.391,0.963-1.1,1.128-2.127h0.45c0,0.511-0.019,1.312-0.063,2.405
					c-0.043,1.095-0.064,1.944-0.064,2.558v1.616h-0.405c-0.091-0.978-0.437-1.661-1.039-2.05c-0.602-0.388-1.659-0.581-3.169-0.581
					h-2.847v4.977c0,1.522,0.31,2.521,0.934,3.002c0.617,0.483,1.826,0.724,3.623,0.724c1.662,0,2.959-0.405,3.893-1.213
					c0.934-0.809,1.562-2.064,1.879-3.769l0.448,0.055c-0.055,1.058-0.171,2.066-0.349,3.026c-0.174,0.962-0.412,1.866-0.713,2.713
					c-1.324-0.038-2.768-0.066-4.335-0.083c-1.568-0.018-3.277-0.029-5.13-0.029c-1.72,0-3.04,0.006-3.961,0.017
					C330.893,38.037,330.021,38.052,329.199,38.069z"/>
			</g>
		</g>
	</g>
</g>
<g id="Layer_6">
</g>
<g id="Layer_2">
</g>
<g id="Layer_3">
</g>
<g id="Layer_7">
</g>
<g id="Retícula" display="none">
	<g display="inline">
		<g>
			<rect x="-12.484" y="-1575.206" opacity="0.3" fill="#42A5F5" width="81.698" height="9161.738"/>
			<rect x="83.422" y="-1575.206" opacity="0.3" fill="#42A5F5" width="81.699" height="9161.738"/>
			<rect x="179.33" y="-1575.206" opacity="0.3" fill="#42A5F5" width="81.699" height="9161.738"/>
			<rect x="275.237" y="-1575.206" opacity="0.3" fill="#42A5F5" width="81.698" height="9161.738"/>
		</g>
	</g>
</g>
</svg>
