<?xml version="1.0" encoding="utf-8"?>
<!-- Generator: Adobe Illustrator 16.0.0, SVG Export Plug-In . SVG Version: 6.00 Build 0)  -->
<!DOCTYPE svg PUBLIC "-//W3C//DTD SVG 1.1//EN" "http://www.w3.org/Graphics/SVG/1.1/DTD/svg11.dtd">
<svg version="1.1" xmlns="http://www.w3.org/2000/svg" xmlns:xlink="http://www.w3.org/1999/xlink" x="0px" y="0px"
	 width="369.12px" height="33.779px" viewBox="0 0 369.12 33.779" enable-background="new 0 0 369.12 33.779" xml:space="preserve">
<g id="Layer_5" display="none">
</g>
<g id="Layer_1">
	<g>
		<g>
			<path fill="#FFFFFF" d="M31.793,32.99c-1.152-0.055-1.238-0.264-1.414-5.608c-1.596,2.014-2.393,2.804-3.544,3.679
				c-2.212,1.577-5.756,2.718-8.678,2.718c-3.453,0-7.346-1.49-9.384-3.505c-2.302-2.189-3.544-5.871-3.544-10.164
				c0-0.438,0-1.053,0.09-1.753v-1.401V6.997c0-4.656-5.181-4.226-5.315-4.816c-0.171-0.768,6.241-1.189,10.275-1.927
				c0.871-0.159,1.061,0.261,1.061,2.715l-0.18,14.862v1.927c0,6.484,3.9,10.955,9.652,10.955c5.492,0,10.008-3.945,9.566-8.5
				v-0.264V7.263c0.066-5.574-5.405-4.469-5.405-5.082c0-0.966,7.872-1.719,10.438-2.162c0.509-0.088,1.139,0.071,1.139,1.999v4.719
				c3.187-3.856,7.082-5.782,11.596-5.782c4.873,0,7.795,1.839,10.538,6.395c3.364-4.381,7.264-6.395,12.22-6.395
				c7.616,0,12.218,5.257,12.218,14.019v9.604c0,1.928,0.356,3.855,0.886,4.557c0.71,0.962,3.014,2.015,4.697,2.19
				c0.797,0.088,1.061,0.35,1.061,0.876c0,0.525-0.355,0.789-0.972,0.789c-0.356,0-13.983-0.021-14.249-0.021
				c-0.621,0-1.158-0.31-1.158-0.854c-0.002-0.352,0.264-0.616,0.708-0.79c3.009-1.139,3.187-1.403,3.187-6.047v-8.816
				c0-4.115-0.62-6.395-2.304-8.584c-1.77-2.368-4.161-3.595-6.904-3.595c-4.255,0-8.589,2.894-8.589,5.697
				c0,0.264,0,0.613,0.087,1.052c0.266,1.401,0.266,1.578,0.266,2.891v11.181c0,4.382,1.155,5.781,5.311,6.133
				c0.978,0.088,1.417,0.438,1.417,0.964c0,0.525-0.439,0.789-1.147,0.789c0,0-14.046-0.028-14.313-0.028
				c-0.528,0-1.099-0.187-1.092-0.848c0.002-0.263,0.262-0.527,0.796-0.702c3.008-1.053,3.099-1.227,3.099-5.696V14.095
				c0-6.043-3.367-9.725-8.858-9.725c-5.044,0-8.497,2.805-8.497,7.097V25.63c0,1.063,0.068,2.1,0.061,3.034
				c0.426,2.447,5.617,2.246,5.631,2.572c0.017,0.397-0.137,0.638-0.482,0.683C41.758,31.917,31.835,32.993,31.793,32.99z"/>
		</g>
		<g>
			<g>
				<path fill="#FFFFFF" d="M308.478,4.581l7.009,13.349c1.877,0.112,3.748,0.225,5.609,0.348l-9.648-17.349h-5.697l-8.764,16.037
					c1.617,0.072,3.232,0.148,4.839,0.224L308.478,4.581z"/>
			</g>
			<g>
				<path fill="#FFFFFF" d="M344.902,0.929h-5.33V19.59c1.792,0.147,3.563,0.29,5.33,0.439V0.929z"/>
			</g>
			<g>
				<path fill="#FFFFFF" d="M323.342,32.891h5.883l-8.129-14.613c-1.861-0.123-3.732-0.236-5.609-0.348L323.342,32.891z"/>
			</g>
			<g>
				<path fill="#FFFFFF" d="M293.545,32.891l8.28-15.702c-1.606-0.076-3.222-0.151-4.839-0.224l-8.704,15.925H293.545z"/>
			</g>
			<g>
				<path fill="#FFFFFF" d="M369.12,32.891v-4.46h-24.218v-8.402c-1.767-0.149-3.538-0.292-5.33-0.439v13.301H369.12z"/>
			</g>
			<g>
				<polygon fill="#FFFFFF" points="123.189,0.929 113.482,20.073 113.482,20.073 				"/>
			</g>
			<g>
				<path fill="#FFFFFF" d="M95.559,0.929h-5.762l11.087,20.282c1.711-0.167,3.437-0.33,5.17-0.487L95.559,0.929z"/>
			</g>
			<g>
				<path fill="#FFFFFF" d="M144.126,0.929h-5.327v17.282c1.771-0.111,3.544-0.218,5.327-0.322V0.929z"/>
			</g>
			<g>
				<path fill="#FFFFFF" d="M220.322,5.263h14.686V0.929h-34.63v4.334h14.62v10.268c1.77-0.017,3.547-0.026,5.324-0.039V5.263z"/>
			</g>
			<g>
				<path fill="#FFFFFF" d="M277.933,0.929h-5.325v15.138c1.781,0.052,3.559,0.102,5.325,0.162V0.929z"/>
			</g>
			<g>
				<path fill="#FFFFFF" d="M249.314,0.929h-5.325v14.604c1.778,0.015,3.555,0.033,5.325,0.058V0.929z"/>
			</g>
			<g>
				<path fill="#FFFFFF" d="M175.459,16.293v0.124c1.19-0.042,2.377-0.088,3.574-0.124H175.459z"/>
			</g>
			<g>
				<path fill="#FFFFFF" d="M166.056,5.079h18.336c1.283,0,2.177,0.236,2.693,0.709c0.518,0.475,0.776,1.335,0.776,2.573v4.647
					c0,1.28-0.259,2.146-0.776,2.602c-0.227,0.202-0.544,0.35-0.926,0.461c2.293-0.062,4.592-0.123,6.901-0.179
					c0.082-0.504,0.132-1.05,0.132-1.643V7.123c0-2.192-0.541-3.771-1.612-4.741c-1.07-0.972-2.781-1.454-5.132-1.454h-25.721V17.02
					c1.771-0.085,3.547-0.163,5.328-0.239V5.079z"/>
			</g>
			<g>
				<polygon fill="#FFFFFF" points="118.66,19.646 128.454,0.929 118.66,19.646 				"/>
			</g>
			<g>
				<path fill="#FFFFFF" d="M118.66,19.646l9.794-18.718h-5.265l-9.707,19.145C115.197,19.928,116.919,19.788,118.66,19.646z"/>
			</g>
			<g opacity="0.3">
				<path fill="#FFFFFF" d="M184.392,16.293c0.712,0,1.29-0.078,1.768-0.222c-2.385,0.07-4.759,0.145-7.126,0.222H184.392z"/>
			</g>
			<g>
				<path fill="#FFFFFF" d="M107.268,32.891l2.418-5.321l3.797-7.497l0,0l-3.797,7.494l-3.632-6.844
					c-1.733,0.157-3.459,0.32-5.17,0.487L107.268,32.891L107.268,32.891z"/>
			</g>
			<g>
				<path fill="#FFFFFF" d="M144.126,32.891V17.889c-1.783,0.104-3.556,0.211-5.327,0.322v14.68H144.126z"/>
			</g>
			<g>
				<path fill="#FFFFFF" d="M220.322,32.891V15.492c-1.777,0.012-3.555,0.021-5.324,0.039v17.36H220.322z"/>
			</g>
			<g>
				<path fill="#FFFFFF" d="M245.569,31.314c1.055,1.053,3.031,1.577,5.927,1.577h18.992c2.896,0,4.86-0.523,5.895-1.577
					c1.031-1.056,1.55-3.05,1.55-5.978v-9.108c-1.767-0.06-3.544-0.11-5.325-0.162v12.364h-23.293V15.59
					c-1.771-0.025-3.547-0.043-5.325-0.058v9.804C243.989,28.264,244.515,30.259,245.569,31.314z"/>
			</g>
			<g>
				<path fill="#FFFFFF" d="M166.056,32.891v-16.11c-1.781,0.076-3.558,0.153-5.328,0.239v15.871H166.056z"/>
			</g>
			<g>
				<path fill="#FFFFFF" d="M184.392,16.293h-5.358c-1.197,0.036-2.384,0.082-3.574,0.124v4.035l12.983,12.439h7.929L181.75,20.439
					h4.701c2.348,0,4.059-0.483,5.129-1.454c0.782-0.706,1.268-1.747,1.48-3.093c-2.31,0.056-4.608,0.117-6.901,0.179
					C185.682,16.215,185.104,16.293,184.392,16.293z"/>
			</g>
			<g>
				<path fill="#FFFFFF" d="M118.66,19.646c-1.741,0.137-3.463,0.282-5.178,0.424l-3.797,7.497l-2.418,5.324h4.459L118.66,19.646z"
					/>
			</g>
			<g>
				<path fill="#FFFFFF" d="M286.705,21.294l-1.414,3.251c18.242-0.336,38.448-3.287,43.25-10.964
					c-8.68,4.426-22.403,7.181-36.273,7.574c-0.432,0.016-3.818,0.109-3.818,0.109L286.705,21.294z"/>
			</g>
		</g>
	</g>
</g>
<g id="Layer_6">
</g>
<g id="Layer_2">
</g>
<g id="Layer_3">
</g>
<g id="Layer_7">
</g>
<g id="Retícula" display="none">
	<g display="inline">
		<g>
			<rect x="6.606" y="-1599.678" opacity="0.3" fill="#42A5F5" width="81.699" height="9161.738"/>
			<rect x="102.512" y="-1599.678" opacity="0.3" fill="#42A5F5" width="81.7" height="9161.738"/>
			<rect x="198.42" y="-1599.678" opacity="0.3" fill="#42A5F5" width="81.7" height="9161.738"/>
			<rect x="294.327" y="-1599.678" opacity="0.3" fill="#42A5F5" width="81.698" height="9161.738"/>
		</g>
	</g>
</g>
</svg>
